<?xml version="1.0" encoding="UTF-8" standalone="no"?><svg xmlns="http://www.w3.org/2000/svg" xmlns:xlink="http://www.w3.org/1999/xlink" contentStyleType="text/css" height="246px" preserveAspectRatio="none" style="width:259px;height:246px;background:#FFFFFF;" version="1.1" viewBox="0 0 259 246" width="259px" zoomAndPan="magnify"><defs/><g><!--class Memory--><g id="elem_Memory"><rect codeLine="1" fill="#F1F1F1" height="105.2038" id="Memory" rx="2.5" ry="2.5" style="stroke:#181818;stroke-width:0.5;" width="245" x="7" y="7"/><ellipse cx="97.75" cy="23" fill="#ADD1B2" rx="11" ry="11" style="stroke:#181818;stroke-width:1.0;"/><path d="M97.2188,29.9219 Q95.4688,29.9219 94.3281,29.1875 Q93.2031,28.4375 92.6406,27.0938 Q92.0938,25.7344 92.0938,23.9375 Q92.0938,21.9063 92.75,20.4531 Q93.4063,19 94.6875,18.2188 Q95.9688,17.4375 97.8438,17.4375 Q98.7344,17.4375 99.4063,17.625 Q100.0781,17.7969 100.7656,18.1406 L99.9531,20.1563 Q99.3281,19.8438 98.7813,19.7188 Q98.25,19.5938 97.7656,19.5938 Q96.5938,19.5938 95.8906,20.125 Q95.1875,20.6563 94.8906,21.6094 Q94.5938,22.5625 94.5938,23.8281 Q94.5938,25.8438 95.3125,26.8125 Q96.0313,27.7656 97.625,27.7656 Q98.2188,27.7656 98.8438,27.6094 Q99.4688,27.4531 100.2969,27.0781 L100.2969,29.2969 Q99.5625,29.6094 98.7656,29.7656 Q97.9844,29.9219 97.2188,29.9219 Z " fill="#000000"/><text fill="#000000" font-family="sans-serif" font-size="14" lengthAdjust="spacing" textLength="55" x="118.25" y="28.432">Memory</text><line style="stroke:#181818;stroke-width:0.5;" x1="8" x2="251" y1="39" y2="39"/><ellipse cx="18" cy="54.034" fill="none" rx="3" ry="3" style="stroke:#038048;stroke-width:1.0;"/><text fill="#000000" font-family="sans-serif" font-size="14" lengthAdjust="spacing" textLength="138" x="27" y="57.9659">byte[] main_memory</text><rect fill="none" height="6" style="stroke:#C82930;stroke-width:1.0;" width="6" x="15" y="70.1019"/><text fill="#000000" font-family="sans-serif" font-size="14" lengthAdjust="spacing" textLength="165" x="27" y="77.0339">int next_allocation_index</text><line style="stroke:#181818;stroke-width:0.5;" x1="8" x2="251" y1="85.1358" y2="85.1358"/><ellipse cx="18" cy="100.1698" fill="#84BE84" rx="3" ry="3" style="stroke:#038048;stroke-width:1.0;"/><text fill="#000000" font-family="sans-serif" font-size="14" lengthAdjust="spacing" textLength="219" x="27" y="104.1018">void swap_in(program: Program)</text></g><!--class Program--><g id="elem_Program"><rect fill="#F1F1F1" height="48" id="Program" rx="2.5" ry="2.5" style="stroke:#181818;stroke-width:0.5;" width="90" x="84.5" y="191.2"/><ellipse cx="99.5" cy="207.2" fill="#ADD1B2" rx="11" ry="11" style="stroke:#181818;stroke-width:1.0;"/><path d="M98.9688,214.1219 Q97.2188,214.1219 96.0781,213.3875 Q94.9531,212.6375 94.3906,211.2938 Q93.8438,209.9344 93.8438,208.1375 Q93.8438,206.1063 94.5,204.6531 Q95.1563,203.2 96.4375,202.4188 Q97.7188,201.6375 99.5938,201.6375 Q100.4844,201.6375 101.1563,201.825 Q101.8281,201.9969 102.5156,202.3406 L101.7031,204.3563 Q101.0781,204.0438 100.5313,203.9188 Q100,203.7938 99.5156,203.7938 Q98.3438,203.7938 97.6406,204.325 Q96.9375,204.8563 96.6406,205.8094 Q96.3438,206.7625 96.3438,208.0281 Q96.3438,210.0438 97.0625,211.0125 Q97.7813,211.9656 99.375,211.9656 Q99.9688,211.9656 100.5938,211.8094 Q101.2188,211.6531 102.0469,211.2781 L102.0469,213.4969 Q101.3125,213.8094 100.5156,213.9656 Q99.7344,214.1219 98.9688,214.1219 Z " fill="#000000"/><text fill="#000000" font-family="sans-serif" font-size="14" lengthAdjust="spacing" textLength="58" x="113.5" y="212.632">Program</text><line style="stroke:#181818;stroke-width:0.5;" x1="85.5" x2="173.5" y1="223.2" y2="223.2"/><line style="stroke:#181818;stroke-width:0.5;" x1="85.5" x2="173.5" y1="231.2" y2="231.2"/></g><!--link Memory to Program--><g id="link_Memory_Program"><path codeLine="7" d="M129.5,112.6 C129.5,136.63 129.5,164.29 129.5,184.68 " fill="none" id="Memory-to-Program" style="stroke:#181818;stroke-width:1.0;"/><polygon fill="#181818" points="129.5,189.51,133.5,180.51,129.5,184.51,125.5,180.51,129.5,189.51" style="stroke:#181818;stroke-width:1.0;"/><text fill="#000000" font-family="sans-serif" font-size="13" lengthAdjust="spacing" textLength="27" x="130.5" y="157.097">uses</text></g><!--SRC=[Iyv9B2vMy4tDpI-gLAZcKW02xQJAajJeM8NSnCoy-5om35XSDpElH24ljQ8aFZ4d9pyviIGpFoy-CoybjGAYhIm_CqMXk3on02YeKL2KdrwKc6kb401XQ7BLSd51hT7LjOC9ArWfb1Qd5WC0]--></g></svg>