<?xml version="1.0" encoding="us-ascii" standalone="no"?><svg xmlns="http://www.w3.org/2000/svg" xmlns:xlink="http://www.w3.org/1999/xlink" contentStyleType="text/css" height="526px" preserveAspectRatio="none" style="width:645px;height:526px;background:#FFFFFF;" version="1.1" viewBox="0 0 645 526" width="645px" zoomAndPan="magnify"><defs/><g><!--class Memory--><g id="elem_Memory"><rect codeLine="1" fill="#F1F1F1" height="219.6113" id="Memory" rx="2.5" ry="2.5" style="stroke:#181818;stroke-width:0.5;" width="249" x="198" y="7"/><ellipse cx="290.75" cy="23" fill="#ADD1B2" rx="11" ry="11" style="stroke:#181818;stroke-width:1.0;"/><path d="M290.2188,29.9219 Q288.4688,29.9219 287.3281,29.1875 Q286.2031,28.4375 285.6406,27.0938 Q285.0938,25.7344 285.0938,23.9375 Q285.0938,21.9063 285.75,20.4531 Q286.4063,19 287.6875,18.2188 Q288.9688,17.4375 290.8438,17.4375 Q291.7344,17.4375 292.4063,17.625 Q293.0781,17.7969 293.7656,18.1406 L292.9531,20.1563 Q292.3281,19.8438 291.7813,19.7188 Q291.25,19.5938 290.7656,19.5938 Q289.5938,19.5938 288.8906,20.125 Q288.1875,20.6563 287.8906,21.6094 Q287.5938,22.5625 287.5938,23.8281 Q287.5938,25.8438 288.3125,26.8125 Q289.0313,27.7656 290.625,27.7656 Q291.2188,27.7656 291.8438,27.6094 Q292.4688,27.4531 293.2969,27.0781 L293.2969,29.2969 Q292.5625,29.6094 291.7656,29.7656 Q290.9844,29.9219 290.2188,29.9219 Z " fill="#000000"/><text fill="#000000" font-family="sans-serif" font-size="14" lengthAdjust="spacing" textLength="55" x="311.25" y="28.432">Memory</text><line style="stroke:#181818;stroke-width:0.5;" x1="199" x2="446" y1="39" y2="39"/><rect fill="none" height="6" style="stroke:#C82930;stroke-width:1.0;" width="6" x="206" y="51.034"/><text fill="#000000" font-family="sans-serif" font-size="14" lengthAdjust="spacing" textLength="109" x="218" y="57.9659">int memory_size</text><rect fill="none" height="6" style="stroke:#C82930;stroke-width:1.0;" width="6" x="206" y="70.1019"/><text fill="#000000" font-family="sans-serif" font-size="14" lengthAdjust="spacing" textLength="138" x="218" y="77.0339">byte[] main_memory</text><rect fill="none" height="6" style="stroke:#C82930;stroke-width:1.0;" width="6" x="206" y="89.1698"/><text fill="#000000" font-family="sans-serif" font-size="14" lengthAdjust="spacing" textLength="176" x="218" y="96.1018">Segment[] memory_layout</text><line style="stroke:#181818;stroke-width:0.5;" x1="199" x2="446" y1="104.2038" y2="104.2038"/><ellipse cx="209" cy="119.2377" fill="#84BE84" rx="3" ry="3" style="stroke:#038048;stroke-width:1.0;"/><text fill="#000000" font-family="sans-serif" font-size="14" lengthAdjust="spacing" textLength="115" x="218" y="123.1697">Memory(size: int)</text><ellipse cx="209" cy="138.3056" fill="#84BE84" rx="3" ry="3" style="stroke:#038048;stroke-width:1.0;"/><text fill="#000000" font-family="sans-serif" font-size="14" lengthAdjust="spacing" textLength="223" x="218" y="142.2376">swap_in(program: Program): void</text><ellipse cx="209" cy="157.3735" fill="#84BE84" rx="3" ry="3" style="stroke:#038048;stroke-width:1.0;"/><text fill="#000000" font-family="sans-serif" font-size="14" lengthAdjust="spacing" textLength="217" x="218" y="161.3055">swap_out(layout_index: int): void</text><ellipse cx="209" cy="176.4415" fill="#84BE84" rx="3" ry="3" style="stroke:#038048;stroke-width:1.0;"/><text fill="#000000" font-family="sans-serif" font-size="14" lengthAdjust="spacing" textLength="119" x="218" y="180.3734">get_bytes(): byte[]</text><ellipse cx="209" cy="195.5094" fill="#84BE84" rx="3" ry="3" style="stroke:#038048;stroke-width:1.0;"/><text fill="#000000" font-family="sans-serif" font-size="14" lengthAdjust="spacing" textLength="206" x="218" y="199.4414">get_memory_layout(): Segment</text><ellipse cx="209" cy="214.5773" fill="#84BE84" rx="3" ry="3" style="stroke:#038048;stroke-width:1.0;"/><text fill="#000000" font-family="sans-serif" font-size="14" lengthAdjust="spacing" textLength="86" x="218" y="218.5093">shrink(): void</text></g><!--class Segment--><g id="elem_Segment"><rect codeLine="14" fill="#F1F1F1" height="105.2038" id="Segment" rx="2.5" ry="2.5" style="stroke:#181818;stroke-width:0.5;" width="175" x="7" y="305.61"/><ellipse cx="60.25" cy="321.61" fill="#ADD1B2" rx="11" ry="11" style="stroke:#181818;stroke-width:1.0;"/><path d="M59.7188,328.5319 Q57.9688,328.5319 56.8281,327.7975 Q55.7031,327.0475 55.1406,325.7037 Q54.5938,324.3444 54.5938,322.5475 Q54.5938,320.5162 55.25,319.0631 Q55.9063,317.61 57.1875,316.8287 Q58.4688,316.0475 60.3438,316.0475 Q61.2344,316.0475 61.9063,316.235 Q62.5781,316.4069 63.2656,316.7506 L62.4531,318.7662 Q61.8281,318.4537 61.2813,318.3287 Q60.75,318.2037 60.2656,318.2037 Q59.0938,318.2037 58.3906,318.735 Q57.6875,319.2662 57.3906,320.2194 Q57.0938,321.1725 57.0938,322.4381 Q57.0938,324.4537 57.8125,325.4225 Q58.5313,326.3756 60.125,326.3756 Q60.7188,326.3756 61.3438,326.2194 Q61.9688,326.0631 62.7969,325.6881 L62.7969,327.9069 Q62.0625,328.2194 61.2656,328.3756 Q60.4844,328.5319 59.7188,328.5319 Z " fill="#000000"/><text fill="#000000" font-family="sans-serif" font-size="14" lengthAdjust="spacing" textLength="60" x="80.75" y="327.042">Segment</text><line style="stroke:#181818;stroke-width:0.5;" x1="8" x2="181" y1="337.61" y2="337.61"/><ellipse cx="18" cy="352.644" fill="none" rx="3" ry="3" style="stroke:#038048;stroke-width:1.0;"/><text fill="#000000" font-family="sans-serif" font-size="14" lengthAdjust="spacing" textLength="149" x="27" y="356.5759">string type {readOnly}</text><ellipse cx="18" cy="371.7119" fill="none" rx="3" ry="3" style="stroke:#038048;stroke-width:1.0;"/><text fill="#000000" font-family="sans-serif" font-size="14" lengthAdjust="spacing" textLength="135" x="27" y="375.6439">int index {readOnly}</text><ellipse cx="18" cy="390.7798" fill="none" rx="3" ry="3" style="stroke:#038048;stroke-width:1.0;"/><text fill="#000000" font-family="sans-serif" font-size="14" lengthAdjust="spacing" textLength="124" x="27" y="394.7118">int size {readOnly}</text><line style="stroke:#181818;stroke-width:0.5;" x1="8" x2="181" y1="402.8138" y2="402.8138"/></g><!--class SafeList--><g id="elem_SafeList"><rect codeLine="20" fill="#F1F1F1" height="80.4799" id="SafeList" rx="2.5" ry="2.5" style="stroke:#181818;stroke-width:0.5;" width="210" x="217.5" y="317.97"/><ellipse cx="292.25" cy="340.676" fill="#ADD1B2" rx="11" ry="11" style="stroke:#181818;stroke-width:1.0;"/><path d="M291.7188,347.5979 Q289.9688,347.5979 288.8281,346.8635 Q287.7031,346.1135 287.1406,344.7698 Q286.5938,343.4104 286.5938,341.6135 Q286.5938,339.5823 287.25,338.1291 Q287.9063,336.676 289.1875,335.8948 Q290.4688,335.1135 292.3438,335.1135 Q293.2344,335.1135 293.9063,335.301 Q294.5781,335.4729 295.2656,335.8166 L294.4531,337.8323 Q293.8281,337.5198 293.2813,337.3948 Q292.75,337.2698 292.2656,337.2698 Q291.0938,337.2698 290.3906,337.801 Q289.6875,338.3323 289.3906,339.2854 Q289.0938,340.2385 289.0938,341.5041 Q289.0938,343.5198 289.8125,344.4885 Q290.5313,345.4416 292.125,345.4416 Q292.7188,345.4416 293.3438,345.2854 Q293.9688,345.1291 294.7969,344.7541 L294.7969,346.9729 Q294.0625,347.2854 293.2656,347.4416 Q292.4844,347.5979 291.7188,347.5979 Z " fill="#000000"/><text fill="#000000" font-family="sans-serif" font-size="12" font-style="italic" lengthAdjust="spacing" textLength="42" x="317.75" y="335.7981">&#171;utility&#187;</text><text fill="#000000" font-family="sans-serif" font-size="14" lengthAdjust="spacing" textLength="52" x="312.75" y="354.28">SafeList</text><line style="stroke:#181818;stroke-width:0.5;" x1="218.5" x2="426.5" y1="363.382" y2="363.382"/><line style="stroke:#181818;stroke-width:0.5;" x1="218.5" x2="426.5" y1="371.382" y2="371.382"/><ellipse cx="228.5" cy="386.416" fill="#84BE84" rx="3" ry="3" style="stroke:#038048;stroke-width:1.0;"/><text fill="#000000" font-family="sans-serif" font-size="14" lengthAdjust="spacing" textLength="184" x="237.5" y="390.348">__getitem__(index: int) : Any</text></g><!--class Program--><g id="elem_Program"><rect codeLine="24" fill="#F1F1F1" height="105.2038" id="Program" rx="2.5" ry="2.5" style="stroke:#181818;stroke-width:0.5;" width="175" x="463" y="305.61"/><ellipse cx="517.25" cy="321.61" fill="#ADD1B2" rx="11" ry="11" style="stroke:#181818;stroke-width:1.0;"/><path d="M516.7188,328.5319 Q514.9688,328.5319 513.8281,327.7975 Q512.7031,327.0475 512.1406,325.7037 Q511.5938,324.3444 511.5938,322.5475 Q511.5938,320.5162 512.25,319.0631 Q512.9063,317.61 514.1875,316.8287 Q515.4688,316.0475 517.3438,316.0475 Q518.2344,316.0475 518.9063,316.235 Q519.5781,316.4069 520.2656,316.7506 L519.4531,318.7662 Q518.8281,318.4537 518.2813,318.3287 Q517.75,318.2037 517.2656,318.2037 Q516.0938,318.2037 515.3906,318.735 Q514.6875,319.2662 514.3906,320.2194 Q514.0938,321.1725 514.0938,322.4381 Q514.0938,324.4537 514.8125,325.4225 Q515.5313,326.3756 517.125,326.3756 Q517.7188,326.3756 518.3438,326.2194 Q518.9688,326.0631 519.7969,325.6881 L519.7969,327.9069 Q519.0625,328.2194 518.2656,328.3756 Q517.4844,328.5319 516.7188,328.5319 Z " fill="#000000"/><text fill="#000000" font-family="sans-serif" font-size="14" lengthAdjust="spacing" textLength="58" x="537.75" y="327.042">Program</text><line style="stroke:#181818;stroke-width:0.5;" x1="464" x2="637" y1="337.61" y2="337.61"/><rect fill="none" height="6" style="stroke:#C82930;stroke-width:1.0;" width="6" x="471" y="349.644"/><text fill="#000000" font-family="sans-serif" font-size="14" lengthAdjust="spacing" textLength="79" x="483" y="356.5759">byte[] bytes</text><line style="stroke:#181818;stroke-width:0.5;" x1="464" x2="637" y1="364.6779" y2="364.6779"/><ellipse cx="474" cy="379.7119" fill="#84BE84" rx="3" ry="3" style="stroke:#038048;stroke-width:1.0;"/><text fill="#000000" font-family="sans-serif" font-size="14" lengthAdjust="spacing" textLength="149" x="483" y="383.6439">Program(bytes: byte[])</text><ellipse cx="474" cy="398.7798" fill="#84BE84" rx="3" ry="3" style="stroke:#038048;stroke-width:1.0;"/><text fill="#000000" font-family="sans-serif" font-size="14" lengthAdjust="spacing" textLength="102" x="483" y="402.7118">stream(): byte[]</text></g><!--class list--><g id="elem_list"><rect fill="#F1F1F1" height="48" id="list" rx="2.5" ry="2.5" style="stroke:#181818;stroke-width:0.5;" width="52" x="296.5" y="471.81"/><ellipse cx="311.5" cy="487.81" fill="#ADD1B2" rx="11" ry="11" style="stroke:#181818;stroke-width:1.0;"/><path d="M310.9688,494.7319 Q309.2188,494.7319 308.0781,493.9975 Q306.9531,493.2475 306.3906,491.9037 Q305.8438,490.5444 305.8438,488.7475 Q305.8438,486.7162 306.5,485.2631 Q307.1563,483.81 308.4375,483.0287 Q309.7188,482.2475 311.5938,482.2475 Q312.4844,482.2475 313.1563,482.435 Q313.8281,482.6069 314.5156,482.9506 L313.7031,484.9662 Q313.0781,484.6537 312.5313,484.5287 Q312,484.4037 311.5156,484.4037 Q310.3438,484.4037 309.6406,484.935 Q308.9375,485.4662 308.6406,486.4194 Q308.3438,487.3725 308.3438,488.6381 Q308.3438,490.6537 309.0625,491.6225 Q309.7813,492.5756 311.375,492.5756 Q311.9688,492.5756 312.5938,492.4194 Q313.2188,492.2631 314.0469,491.8881 L314.0469,494.1069 Q313.3125,494.4194 312.5156,494.5756 Q311.7344,494.7319 310.9688,494.7319 Z " fill="#000000"/><text fill="#000000" font-family="sans-serif" font-size="14" lengthAdjust="spacing" textLength="20" x="325.5" y="493.242">list</text><line style="stroke:#181818;stroke-width:0.5;" x1="297.5" x2="347.5" y1="503.81" y2="503.81"/><line style="stroke:#181818;stroke-width:0.5;" x1="297.5" x2="347.5" y1="511.81" y2="511.81"/></g><!--link SafeList to list--><g id="link_SafeList_list"><path codeLine="31" d="M322.5,398.79 C322.5,422.4 322.5,433.57 322.5,453.52 " fill="none" id="SafeList-to-list" style="stroke:#181818;stroke-width:1.0;"/><polygon fill="none" points="322.5,471.52,328.5,453.52,316.5,453.52,322.5,471.52" style="stroke:#181818;stroke-width:1.0;"/></g><!--link Memory to Program--><g id="link_Memory_Program"><path codeLine="32" d="M426.49,227 C452.45,254.25 474.9625,277.8948 496.8725,300.9048 " fill="none" id="Memory-to-Program" style="stroke:#181818;stroke-width:1.0;"/><polygon fill="#181818" points="501.01,305.25,497.7006,295.9738,497.5621,301.629,491.9069,301.4905,501.01,305.25" style="stroke:#181818;stroke-width:1.0;"/><text fill="#000000" font-family="sans-serif" font-size="13" lengthAdjust="spacing" textLength="27" x="471.24" y="271.507">uses</text></g><!--link Memory to SafeList--><g id="link_Memory_SafeList"><path codeLine="33" d="M322.5,227 C322.5,259.31 322.5,286.65 322.5,311.5 " fill="none" id="Memory-to-SafeList" style="stroke:#181818;stroke-width:1.0;"/><polygon fill="#181818" points="322.5,317.5,326.5,308.5,322.5,312.5,318.5,308.5,322.5,317.5" style="stroke:#181818;stroke-width:1.0;"/><text fill="#000000" font-family="sans-serif" font-size="13" lengthAdjust="spacing" textLength="27" x="323.5" y="271.507">uses</text></g><!--link Memory to Segment--><g id="link_Memory_Segment"><path codeLine="34" d="M218.51,227 C192.55,254.25 170.0375,277.8948 148.1275,300.9048 " fill="none" id="Memory-to-Segment" style="stroke:#181818;stroke-width:1.0;"/><polygon fill="#181818" points="143.99,305.25,153.0931,301.4905,147.4379,301.629,147.2994,295.9738,143.99,305.25" style="stroke:#181818;stroke-width:1.0;"/><text fill="#000000" font-family="sans-serif" font-size="13" lengthAdjust="spacing" textLength="51" x="189.08" y="271.507">contains</text></g><!--SRC=[RLBBJiGm3BptAtnCXVe3rQeITn1875Se2jrG8fgqQbmWBFllE8dxM6bpYZoJyNYSjbVUmwEsmnJWN02T2en3iAaalVdLN7qBg8-lO9LnCgCClEZEQeSHouzw5OOPYmJViRY8IdMKBhdklzKeZHFZD7IJiZKyvqjPmzTWJdiMgOaiIWzE-YVhNF4wZJ8wz8BgsUeEkJ8M6UnvQV8n6VSf5iLBKRGf5sPnCCH3udM0OTHmdhGwFRa-N1YCgILtjw4u_nxPcgXt_M0ymk4me-aDXgPPEqf9zWrgAwNOZGurtBkmQN1qwmPvLocGPG_C4QcuP5Hkasd2jkn8UZLMLNyDz7Gh-ADKLREsh67sr6I7hEzkG1ne3UtWa7wI_mS0]--></g></svg>