<?xml version="1.0" encoding="us-ascii" standalone="no"?><svg xmlns="http://www.w3.org/2000/svg" xmlns:xlink="http://www.w3.org/1999/xlink" contentStyleType="text/css" height="545px" preserveAspectRatio="none" style="width:569px;height:545px;background:#FFFFFF;" version="1.1" viewBox="0 0 569 545" width="569px" zoomAndPan="magnify"><defs/><g><!--class Memory--><g id="elem_Memory"><rect codeLine="1" fill="#F1F1F1" height="238.6792" id="Memory" rx="2.5" ry="2.5" style="stroke:#181818;stroke-width:0.5;" width="249" x="122" y="7"/><ellipse cx="214.75" cy="23" fill="#ADD1B2" rx="11" ry="11" style="stroke:#181818;stroke-width:1.0;"/><path d="M214.2188,29.9219 Q212.4688,29.9219 211.3281,29.1875 Q210.2031,28.4375 209.6406,27.0938 Q209.0938,25.7344 209.0938,23.9375 Q209.0938,21.9063 209.75,20.4531 Q210.4063,19 211.6875,18.2188 Q212.9688,17.4375 214.8438,17.4375 Q215.7344,17.4375 216.4063,17.625 Q217.0781,17.7969 217.7656,18.1406 L216.9531,20.1563 Q216.3281,19.8438 215.7813,19.7188 Q215.25,19.5938 214.7656,19.5938 Q213.5938,19.5938 212.8906,20.125 Q212.1875,20.6563 211.8906,21.6094 Q211.5938,22.5625 211.5938,23.8281 Q211.5938,25.8438 212.3125,26.8125 Q213.0313,27.7656 214.625,27.7656 Q215.2188,27.7656 215.8438,27.6094 Q216.4688,27.4531 217.2969,27.0781 L217.2969,29.2969 Q216.5625,29.6094 215.7656,29.7656 Q214.9844,29.9219 214.2188,29.9219 Z " fill="#000000"/><text fill="#000000" font-family="sans-serif" font-size="14" lengthAdjust="spacing" textLength="55" x="235.25" y="28.432">Memory</text><line style="stroke:#181818;stroke-width:0.5;" x1="123" x2="370" y1="39" y2="39"/><rect fill="none" height="6" style="stroke:#C82930;stroke-width:1.0;" width="6" x="130" y="51.034"/><text fill="#000000" font-family="sans-serif" font-size="14" lengthAdjust="spacing" textLength="138" x="142" y="57.9659">byte[] main_memory</text><rect fill="none" height="6" style="stroke:#C82930;stroke-width:1.0;" width="6" x="130" y="70.1019"/><text fill="#000000" font-family="sans-serif" font-size="14" lengthAdjust="spacing" textLength="165" x="142" y="77.0339">int next_allocation_index</text><rect fill="none" height="6" style="stroke:#C82930;stroke-width:1.0;" width="6" x="130" y="89.1698"/><text fill="#000000" font-family="sans-serif" font-size="14" lengthAdjust="spacing" textLength="176" x="142" y="96.1018">Segment[] memory_layout</text><rect fill="none" height="6" style="stroke:#C82930;stroke-width:1.0;" width="6" x="130" y="108.2377"/><text fill="#000000" font-family="sans-serif" font-size="14" lengthAdjust="spacing" textLength="109" x="142" y="115.1697">int memory_size</text><line style="stroke:#181818;stroke-width:0.5;" x1="123" x2="370" y1="123.2717" y2="123.2717"/><ellipse cx="133" cy="138.3056" fill="#84BE84" rx="3" ry="3" style="stroke:#038048;stroke-width:1.0;"/><text fill="#000000" font-family="sans-serif" font-size="14" lengthAdjust="spacing" textLength="115" x="142" y="142.2376">Memory(size: int)</text><ellipse cx="133" cy="157.3735" fill="#84BE84" rx="3" ry="3" style="stroke:#038048;stroke-width:1.0;"/><text fill="#000000" font-family="sans-serif" font-size="14" lengthAdjust="spacing" textLength="223" x="142" y="161.3055">swap_in(program: Program): void</text><ellipse cx="133" cy="176.4415" fill="#84BE84" rx="3" ry="3" style="stroke:#038048;stroke-width:1.0;"/><text fill="#000000" font-family="sans-serif" font-size="14" lengthAdjust="spacing" textLength="217" x="142" y="180.3734">swap_out(layout_index: int): void</text><ellipse cx="133" cy="195.5094" fill="#84BE84" rx="3" ry="3" style="stroke:#038048;stroke-width:1.0;"/><text fill="#000000" font-family="sans-serif" font-size="14" lengthAdjust="spacing" textLength="119" x="142" y="199.4414">get_bytes(): byte[]</text><ellipse cx="133" cy="214.5773" fill="#84BE84" rx="3" ry="3" style="stroke:#038048;stroke-width:1.0;"/><text fill="#000000" font-family="sans-serif" font-size="14" lengthAdjust="spacing" textLength="206" x="142" y="218.5093">get_memory_layout(): Segment</text><ellipse cx="133" cy="233.6452" fill="#84BE84" rx="3" ry="3" style="stroke:#038048;stroke-width:1.0;"/><text fill="#000000" font-family="sans-serif" font-size="14" lengthAdjust="spacing" textLength="86" x="142" y="237.5772">shrink(): void</text></g><!--class Segment--><g id="elem_Segment"><rect codeLine="15" fill="#F1F1F1" height="105.2038" id="Segment" rx="2.5" ry="2.5" style="stroke:#181818;stroke-width:0.5;" width="99" x="7" y="324.68"/><ellipse cx="25.15" cy="340.68" fill="#ADD1B2" rx="11" ry="11" style="stroke:#181818;stroke-width:1.0;"/><path d="M24.6188,347.6019 Q22.8688,347.6019 21.7281,346.8675 Q20.6031,346.1175 20.0406,344.7738 Q19.4938,343.4144 19.4938,341.6175 Q19.4938,339.5863 20.15,338.1331 Q20.8063,336.68 22.0875,335.8988 Q23.3688,335.1175 25.2438,335.1175 Q26.1344,335.1175 26.8063,335.305 Q27.4781,335.4769 28.1656,335.8206 L27.3531,337.8363 Q26.7281,337.5238 26.1813,337.3988 Q25.65,337.2738 25.1656,337.2738 Q23.9938,337.2738 23.2906,337.805 Q22.5875,338.3363 22.2906,339.2894 Q21.9938,340.2425 21.9938,341.5081 Q21.9938,343.5238 22.7125,344.4925 Q23.4313,345.4456 25.025,345.4456 Q25.6188,345.4456 26.2438,345.2894 Q26.8688,345.1331 27.6969,344.7581 L27.6969,346.9769 Q26.9625,347.2894 26.1656,347.4456 Q25.3844,347.6019 24.6188,347.6019 Z " fill="#000000"/><text fill="#000000" font-family="sans-serif" font-size="14" lengthAdjust="spacing" textLength="60" x="39.85" y="346.112">Segment</text><line style="stroke:#181818;stroke-width:0.5;" x1="8" x2="105" y1="356.68" y2="356.68"/><rect fill="none" height="6" style="stroke:#C82930;stroke-width:1.0;" width="6" x="15" y="368.714"/><text fill="#000000" font-family="sans-serif" font-size="14" lengthAdjust="spacing" textLength="73" x="27" y="375.6459">string type</text><rect fill="none" height="6" style="stroke:#C82930;stroke-width:1.0;" width="6" x="15" y="387.7819"/><text fill="#000000" font-family="sans-serif" font-size="14" lengthAdjust="spacing" textLength="59" x="27" y="394.7139">int index</text><rect fill="none" height="6" style="stroke:#C82930;stroke-width:1.0;" width="6" x="15" y="406.8498"/><text fill="#000000" font-family="sans-serif" font-size="14" lengthAdjust="spacing" textLength="48" x="27" y="413.7818">int size</text><line style="stroke:#181818;stroke-width:0.5;" x1="8" x2="105" y1="421.8838" y2="421.8838"/></g><!--class SafeList--><g id="elem_SafeList"><rect codeLine="21" fill="#F1F1F1" height="80.4799" id="SafeList" rx="2.5" ry="2.5" style="stroke:#181818;stroke-width:0.5;" width="210" x="141.5" y="337.04"/><ellipse cx="216.25" cy="359.746" fill="#ADD1B2" rx="11" ry="11" style="stroke:#181818;stroke-width:1.0;"/><path d="M215.7188,366.6679 Q213.9688,366.6679 212.8281,365.9335 Q211.7031,365.1835 211.1406,363.8398 Q210.5938,362.4804 210.5938,360.6835 Q210.5938,358.6523 211.25,357.1991 Q211.9063,355.746 213.1875,354.9648 Q214.4688,354.1835 216.3438,354.1835 Q217.2344,354.1835 217.9063,354.371 Q218.5781,354.5429 219.2656,354.8866 L218.4531,356.9023 Q217.8281,356.5898 217.2813,356.4648 Q216.75,356.3398 216.2656,356.3398 Q215.0938,356.3398 214.3906,356.871 Q213.6875,357.4023 213.3906,358.3554 Q213.0938,359.3085 213.0938,360.5741 Q213.0938,362.5898 213.8125,363.5585 Q214.5313,364.5116 216.125,364.5116 Q216.7188,364.5116 217.3438,364.3554 Q217.9688,364.1991 218.7969,363.8241 L218.7969,366.0429 Q218.0625,366.3554 217.2656,366.5116 Q216.4844,366.6679 215.7188,366.6679 Z " fill="#000000"/><text fill="#000000" font-family="sans-serif" font-size="12" font-style="italic" lengthAdjust="spacing" textLength="42" x="241.75" y="354.8681">&#171;utility&#187;</text><text fill="#000000" font-family="sans-serif" font-size="14" lengthAdjust="spacing" textLength="52" x="236.75" y="373.35">SafeList</text><line style="stroke:#181818;stroke-width:0.5;" x1="142.5" x2="350.5" y1="382.452" y2="382.452"/><line style="stroke:#181818;stroke-width:0.5;" x1="142.5" x2="350.5" y1="390.452" y2="390.452"/><ellipse cx="152.5" cy="405.486" fill="#84BE84" rx="3" ry="3" style="stroke:#038048;stroke-width:1.0;"/><text fill="#000000" font-family="sans-serif" font-size="14" lengthAdjust="spacing" textLength="184" x="161.5" y="409.418">__getitem__(index: int) : Any</text></g><!--class Program--><g id="elem_Program"><rect codeLine="25" fill="#F1F1F1" height="105.2038" id="Program" rx="2.5" ry="2.5" style="stroke:#181818;stroke-width:0.5;" width="175" x="387" y="324.68"/><ellipse cx="441.25" cy="340.68" fill="#ADD1B2" rx="11" ry="11" style="stroke:#181818;stroke-width:1.0;"/><path d="M440.7188,347.6019 Q438.9688,347.6019 437.8281,346.8675 Q436.7031,346.1175 436.1406,344.7738 Q435.5938,343.4144 435.5938,341.6175 Q435.5938,339.5863 436.25,338.1331 Q436.9063,336.68 438.1875,335.8988 Q439.4688,335.1175 441.3438,335.1175 Q442.2344,335.1175 442.9063,335.305 Q443.5781,335.4769 444.2656,335.8206 L443.4531,337.8363 Q442.8281,337.5238 442.2813,337.3988 Q441.75,337.2738 441.2656,337.2738 Q440.0938,337.2738 439.3906,337.805 Q438.6875,338.3363 438.3906,339.2894 Q438.0938,340.2425 438.0938,341.5081 Q438.0938,343.5238 438.8125,344.4925 Q439.5313,345.4456 441.125,345.4456 Q441.7188,345.4456 442.3438,345.2894 Q442.9688,345.1331 443.7969,344.7581 L443.7969,346.9769 Q443.0625,347.2894 442.2656,347.4456 Q441.4844,347.6019 440.7188,347.6019 Z " fill="#000000"/><text fill="#000000" font-family="sans-serif" font-size="14" lengthAdjust="spacing" textLength="58" x="461.75" y="346.112">Program</text><line style="stroke:#181818;stroke-width:0.5;" x1="388" x2="561" y1="356.68" y2="356.68"/><rect fill="none" height="6" style="stroke:#C82930;stroke-width:1.0;" width="6" x="395" y="368.714"/><text fill="#000000" font-family="sans-serif" font-size="14" lengthAdjust="spacing" textLength="79" x="407" y="375.6459">byte[] bytes</text><line style="stroke:#181818;stroke-width:0.5;" x1="388" x2="561" y1="383.7479" y2="383.7479"/><ellipse cx="398" cy="398.7819" fill="#84BE84" rx="3" ry="3" style="stroke:#038048;stroke-width:1.0;"/><text fill="#000000" font-family="sans-serif" font-size="14" lengthAdjust="spacing" textLength="149" x="407" y="402.7139">Program(bytes: byte[])</text><ellipse cx="398" cy="417.8498" fill="#84BE84" rx="3" ry="3" style="stroke:#038048;stroke-width:1.0;"/><text fill="#000000" font-family="sans-serif" font-size="14" lengthAdjust="spacing" textLength="102" x="407" y="421.7818">stream(): byte[]</text></g><!--class list--><g id="elem_list"><rect fill="#F1F1F1" height="48" id="list" rx="2.5" ry="2.5" style="stroke:#181818;stroke-width:0.5;" width="52" x="220.5" y="490.88"/><ellipse cx="235.5" cy="506.88" fill="#ADD1B2" rx="11" ry="11" style="stroke:#181818;stroke-width:1.0;"/><path d="M234.9688,513.8019 Q233.2188,513.8019 232.0781,513.0675 Q230.9531,512.3175 230.3906,510.9738 Q229.8438,509.6144 229.8438,507.8175 Q229.8438,505.7863 230.5,504.3331 Q231.1563,502.88 232.4375,502.0988 Q233.7188,501.3175 235.5938,501.3175 Q236.4844,501.3175 237.1563,501.505 Q237.8281,501.6769 238.5156,502.0206 L237.7031,504.0363 Q237.0781,503.7238 236.5313,503.5988 Q236,503.4738 235.5156,503.4738 Q234.3438,503.4738 233.6406,504.005 Q232.9375,504.5363 232.6406,505.4894 Q232.3438,506.4425 232.3438,507.7081 Q232.3438,509.7238 233.0625,510.6925 Q233.7813,511.6456 235.375,511.6456 Q235.9688,511.6456 236.5938,511.4894 Q237.2188,511.3331 238.0469,510.9581 L238.0469,513.1769 Q237.3125,513.4894 236.5156,513.6456 Q235.7344,513.8019 234.9688,513.8019 Z " fill="#000000"/><text fill="#000000" font-family="sans-serif" font-size="14" lengthAdjust="spacing" textLength="20" x="249.5" y="512.312">list</text><line style="stroke:#181818;stroke-width:0.5;" x1="221.5" x2="271.5" y1="522.88" y2="522.88"/><line style="stroke:#181818;stroke-width:0.5;" x1="221.5" x2="271.5" y1="530.88" y2="530.88"/></g><!--link SafeList to list--><g id="link_SafeList_list"><path codeLine="32" d="M246.5,417.86 C246.5,441.47 246.5,452.64 246.5,472.59 " fill="none" id="SafeList-to-list" style="stroke:#181818;stroke-width:1.0;"/><polygon fill="none" points="246.5,490.59,252.5,472.59,240.5,472.59,246.5,490.59" style="stroke:#181818;stroke-width:1.0;"/></g><!--link Memory to Program--><g id="link_Memory_Program"><path codeLine="33" d="M355.16,245.97 C380.39,273.53 401.9169,297.036 422.8969,319.936 " fill="none" id="Memory-to-Program" style="stroke:#181818;stroke-width:1.0;"/><polygon fill="#181818" points="426.95,324.36,423.8197,315.0218,423.5724,320.6733,417.921,320.426,426.95,324.36" style="stroke:#181818;stroke-width:1.0;"/><text fill="#000000" font-family="sans-serif" font-size="13" lengthAdjust="spacing" textLength="27" x="395.24" y="290.577">uses</text></g><!--link Memory to SafeList--><g id="link_Memory_SafeList"><path codeLine="34" d="M246.5,245.97 C246.5,278.66 246.5,305.88 246.5,330.6 " fill="none" id="Memory-to-SafeList" style="stroke:#181818;stroke-width:1.0;"/><polygon fill="#181818" points="246.5,336.6,250.5,327.6,246.5,331.6,242.5,327.6,246.5,336.6" style="stroke:#181818;stroke-width:1.0;"/><text fill="#000000" font-family="sans-serif" font-size="13" lengthAdjust="spacing" textLength="27" x="247.5" y="290.577">uses</text></g><!--link Memory to Segment--><g id="link_Memory_Segment"><path codeLine="35" d="M155.95,245.97 C134.92,273.53 117.2505,296.6907 99.7705,319.5907 " fill="none" id="Memory-to-Segment" style="stroke:#181818;stroke-width:1.0;"/><polygon fill="#181818" points="96.13,324.36,104.7703,319.633,99.1638,320.3856,98.4112,314.779,96.13,324.36" style="stroke:#181818;stroke-width:1.0;"/><text fill="#000000" font-family="sans-serif" font-size="13" lengthAdjust="spacing" textLength="51" x="129.89" y="290.577">contains</text></g><!--SRC=[RLBBJiGm3BptAtpCQjKVY5QLk8E4n16XA7H3YSYZQbpOyFXtajHjiuYUKizux9caDp84k5FMJn6-6aXV2yyHrUCJMAcTi0KYG3i4fouef36-bwYz4zgTrONm1pLOvJ3tbZPXPFGpLjrK3_fJDQLyfE4ibtZc7AWUFkIOrDau-M6IbiFzSZXmUFVwNBFI3BQCMjPPTAvuWqAHVGMMwel12hbQDpF8oJhaTTBkZQsAFqtJbzo8jGKNCF46m3YgodETKFulvdSD-Q9kTK0udMRKHcFiEX8yWX1fEutA2i4gPy3XniLTWvBvUu75xnepSLWfhX5iMUEa4hP7awItnThskmEJJWszaxRjjf4Svf26LCZMzmz4UN7elSFqlC8l]--></g></svg>