<?xml version="1.0" encoding="us-ascii" standalone="no"?><svg xmlns="http://www.w3.org/2000/svg" xmlns:xlink="http://www.w3.org/1999/xlink" contentStyleType="text/css" height="507px" preserveAspectRatio="none" style="width:434px;height:507px;background:#FFFFFF;" version="1.1" viewBox="0 0 434 507" width="434px" zoomAndPan="magnify"><defs/><g><!--class Memory--><g id="elem_Memory"><rect codeLine="1" fill="#F1F1F1" height="200.5433" id="Memory" rx="2.5" ry="2.5" style="stroke:#181818;stroke-width:0.5;" width="314" x="69" y="7"/><ellipse cx="194.25" cy="23" fill="#ADD1B2" rx="11" ry="11" style="stroke:#181818;stroke-width:1.0;"/><path d="M193.7188,29.9219 Q191.9688,29.9219 190.8281,29.1875 Q189.7031,28.4375 189.1406,27.0938 Q188.5938,25.7344 188.5938,23.9375 Q188.5938,21.9063 189.25,20.4531 Q189.9063,19 191.1875,18.2188 Q192.4688,17.4375 194.3438,17.4375 Q195.2344,17.4375 195.9063,17.625 Q196.5781,17.7969 197.2656,18.1406 L196.4531,20.1563 Q195.8281,19.8438 195.2813,19.7188 Q194.75,19.5938 194.2656,19.5938 Q193.0938,19.5938 192.3906,20.125 Q191.6875,20.6563 191.3906,21.6094 Q191.0938,22.5625 191.0938,23.8281 Q191.0938,25.8438 191.8125,26.8125 Q192.5313,27.7656 194.125,27.7656 Q194.7188,27.7656 195.3438,27.6094 Q195.9688,27.4531 196.7969,27.0781 L196.7969,29.2969 Q196.0625,29.6094 195.2656,29.7656 Q194.4844,29.9219 193.7188,29.9219 Z " fill="#000000"/><text fill="#000000" font-family="sans-serif" font-size="14" lengthAdjust="spacing" textLength="55" x="214.75" y="28.432">Memory</text><line style="stroke:#181818;stroke-width:0.5;" x1="70" x2="382" y1="39" y2="39"/><rect fill="none" height="6" style="stroke:#C82930;stroke-width:1.0;" width="6" x="77" y="51.034"/><text fill="#000000" font-family="sans-serif" font-size="14" lengthAdjust="spacing" textLength="138" x="89" y="57.9659">byte[] main_memory</text><rect fill="none" height="6" style="stroke:#C82930;stroke-width:1.0;" width="6" x="77" y="70.1019"/><text fill="#000000" font-family="sans-serif" font-size="14" lengthAdjust="spacing" textLength="165" x="89" y="77.0339">int next_allocation_index</text><rect fill="none" height="6" style="stroke:#C82930;stroke-width:1.0;" width="6" x="77" y="89.1698"/><text fill="#000000" font-family="sans-serif" font-size="14" lengthAdjust="spacing" textLength="248" x="89" y="96.1018">SafeList[Dict[str, int]] memory_layout</text><line style="stroke:#181818;stroke-width:0.5;" x1="70" x2="382" y1="104.2038" y2="104.2038"/><ellipse cx="80" cy="119.2377" fill="#84BE84" rx="3" ry="3" style="stroke:#038048;stroke-width:1.0;"/><text fill="#000000" font-family="sans-serif" font-size="14" lengthAdjust="spacing" textLength="223" x="89" y="123.1697">swap_in(program: Program): void</text><ellipse cx="80" cy="138.3056" fill="#84BE84" rx="3" ry="3" style="stroke:#038048;stroke-width:1.0;"/><text fill="#000000" font-family="sans-serif" font-size="14" lengthAdjust="spacing" textLength="217" x="89" y="142.2376">swap_out(layout_index: int): void</text><ellipse cx="80" cy="157.3735" fill="#84BE84" rx="3" ry="3" style="stroke:#038048;stroke-width:1.0;"/><text fill="#000000" font-family="sans-serif" font-size="14" lengthAdjust="spacing" textLength="119" x="89" y="161.3055">get_bytes(): byte[]</text><ellipse cx="80" cy="176.4415" fill="#84BE84" rx="3" ry="3" style="stroke:#038048;stroke-width:1.0;"/><text fill="#000000" font-family="sans-serif" font-size="14" lengthAdjust="spacing" textLength="288" x="89" y="180.3734">get_memory_layout(): SafeList[Dict[str, int]]</text><ellipse cx="80" cy="195.5094" fill="#84BE84" rx="3" ry="3" style="stroke:#038048;stroke-width:1.0;"/><text fill="#000000" font-family="sans-serif" font-size="14" lengthAdjust="spacing" textLength="86" x="89" y="199.4414">shrink(): void</text></g><!--class SafeList--><g id="elem_SafeList"><rect codeLine="13" fill="#F1F1F1" height="80.4799" id="SafeList" rx="2.5" ry="2.5" style="stroke:#181818;stroke-width:0.5;" width="210" x="7" y="298.91"/><ellipse cx="81.75" cy="321.616" fill="#ADD1B2" rx="11" ry="11" style="stroke:#181818;stroke-width:1.0;"/><path d="M81.2188,328.5379 Q79.4688,328.5379 78.3281,327.8035 Q77.2031,327.0535 76.6406,325.7098 Q76.0938,324.3504 76.0938,322.5535 Q76.0938,320.5223 76.75,319.0691 Q77.4063,317.616 78.6875,316.8348 Q79.9688,316.0535 81.8438,316.0535 Q82.7344,316.0535 83.4063,316.241 Q84.0781,316.4129 84.7656,316.7566 L83.9531,318.7723 Q83.3281,318.4598 82.7813,318.3348 Q82.25,318.2098 81.7656,318.2098 Q80.5938,318.2098 79.8906,318.741 Q79.1875,319.2723 78.8906,320.2254 Q78.5938,321.1785 78.5938,322.4441 Q78.5938,324.4598 79.3125,325.4285 Q80.0313,326.3816 81.625,326.3816 Q82.2188,326.3816 82.8438,326.2254 Q83.4688,326.0691 84.2969,325.6941 L84.2969,327.9129 Q83.5625,328.2254 82.7656,328.3816 Q81.9844,328.5379 81.2188,328.5379 Z " fill="#000000"/><text fill="#000000" font-family="sans-serif" font-size="12" font-style="italic" lengthAdjust="spacing" textLength="42" x="107.25" y="316.7381">&#171;utility&#187;</text><text fill="#000000" font-family="sans-serif" font-size="14" lengthAdjust="spacing" textLength="52" x="102.25" y="335.22">SafeList</text><line style="stroke:#181818;stroke-width:0.5;" x1="8" x2="216" y1="344.322" y2="344.322"/><line style="stroke:#181818;stroke-width:0.5;" x1="8" x2="216" y1="352.322" y2="352.322"/><ellipse cx="18" cy="367.356" fill="#84BE84" rx="3" ry="3" style="stroke:#038048;stroke-width:1.0;"/><text fill="#000000" font-family="sans-serif" font-size="14" lengthAdjust="spacing" textLength="184" x="27" y="371.288">__getitem__(index: int) : Any</text></g><!--class Program--><g id="elem_Program"><rect codeLine="17" fill="#F1F1F1" height="105.2038" id="Program" rx="2.5" ry="2.5" style="stroke:#181818;stroke-width:0.5;" width="175" x="252.5" y="286.55"/><ellipse cx="306.75" cy="302.55" fill="#ADD1B2" rx="11" ry="11" style="stroke:#181818;stroke-width:1.0;"/><path d="M306.2188,309.4719 Q304.4688,309.4719 303.3281,308.7375 Q302.2031,307.9875 301.6406,306.6438 Q301.0938,305.2844 301.0938,303.4875 Q301.0938,301.4563 301.75,300.0031 Q302.4063,298.55 303.6875,297.7688 Q304.9688,296.9875 306.8438,296.9875 Q307.7344,296.9875 308.4063,297.175 Q309.0781,297.3469 309.7656,297.6906 L308.9531,299.7063 Q308.3281,299.3938 307.7813,299.2688 Q307.25,299.1438 306.7656,299.1438 Q305.5938,299.1438 304.8906,299.675 Q304.1875,300.2063 303.8906,301.1594 Q303.5938,302.1125 303.5938,303.3781 Q303.5938,305.3938 304.3125,306.3625 Q305.0313,307.3156 306.625,307.3156 Q307.2188,307.3156 307.8438,307.1594 Q308.4688,307.0031 309.2969,306.6281 L309.2969,308.8469 Q308.5625,309.1594 307.7656,309.3156 Q306.9844,309.4719 306.2188,309.4719 Z " fill="#000000"/><text fill="#000000" font-family="sans-serif" font-size="14" lengthAdjust="spacing" textLength="58" x="327.25" y="307.982">Program</text><line style="stroke:#181818;stroke-width:0.5;" x1="253.5" x2="426.5" y1="318.55" y2="318.55"/><rect fill="none" height="6" style="stroke:#C82930;stroke-width:1.0;" width="6" x="260.5" y="330.584"/><text fill="#000000" font-family="sans-serif" font-size="14" lengthAdjust="spacing" textLength="79" x="272.5" y="337.5159">byte[] bytes</text><line style="stroke:#181818;stroke-width:0.5;" x1="253.5" x2="426.5" y1="345.6179" y2="345.6179"/><ellipse cx="263.5" cy="360.6519" fill="#84BE84" rx="3" ry="3" style="stroke:#038048;stroke-width:1.0;"/><text fill="#000000" font-family="sans-serif" font-size="14" lengthAdjust="spacing" textLength="149" x="272.5" y="364.5839">Program(bytes: byte[])</text><ellipse cx="263.5" cy="379.7198" fill="#84BE84" rx="3" ry="3" style="stroke:#038048;stroke-width:1.0;"/><text fill="#000000" font-family="sans-serif" font-size="14" lengthAdjust="spacing" textLength="102" x="272.5" y="383.6518">stream(): byte[]</text></g><!--class list--><g id="elem_list"><rect fill="#F1F1F1" height="48" id="list" rx="2.5" ry="2.5" style="stroke:#181818;stroke-width:0.5;" width="52" x="86" y="452.75"/><ellipse cx="101" cy="468.75" fill="#ADD1B2" rx="11" ry="11" style="stroke:#181818;stroke-width:1.0;"/><path d="M100.4688,475.6719 Q98.7188,475.6719 97.5781,474.9375 Q96.4531,474.1875 95.8906,472.8438 Q95.3438,471.4844 95.3438,469.6875 Q95.3438,467.6563 96,466.2031 Q96.6563,464.75 97.9375,463.9688 Q99.2188,463.1875 101.0938,463.1875 Q101.9844,463.1875 102.6563,463.375 Q103.3281,463.5469 104.0156,463.8906 L103.2031,465.9063 Q102.5781,465.5938 102.0313,465.4688 Q101.5,465.3438 101.0156,465.3438 Q99.8438,465.3438 99.1406,465.875 Q98.4375,466.4063 98.1406,467.3594 Q97.8438,468.3125 97.8438,469.5781 Q97.8438,471.5938 98.5625,472.5625 Q99.2813,473.5156 100.875,473.5156 Q101.4688,473.5156 102.0938,473.3594 Q102.7188,473.2031 103.5469,472.8281 L103.5469,475.0469 Q102.8125,475.3594 102.0156,475.5156 Q101.2344,475.6719 100.4688,475.6719 Z " fill="#000000"/><text fill="#000000" font-family="sans-serif" font-size="14" lengthAdjust="spacing" textLength="20" x="115" y="474.182">list</text><line style="stroke:#181818;stroke-width:0.5;" x1="87" x2="137" y1="484.75" y2="484.75"/><line style="stroke:#181818;stroke-width:0.5;" x1="87" x2="137" y1="492.75" y2="492.75"/></g><!--link SafeList to list--><g id="link_SafeList_list"><path codeLine="24" d="M112,379.73 C112,403.34 112,414.51 112,434.46 " fill="none" id="SafeList-to-list" style="stroke:#181818;stroke-width:1.0;"/><polygon fill="none" points="112,452.46,118,434.46,106,434.46,112,452.46" style="stroke:#181818;stroke-width:1.0;"/></g><!--link Memory to Program--><g id="link_Memory_Program"><path codeLine="25" d="M275.34,207.76 C288.76,234.82 300.0834,257.6651 311.6134,280.9051 " fill="none" id="Memory-to-Program" style="stroke:#181818;stroke-width:1.0;"/><polygon fill="#181818" points="314.28,286.28,313.8633,276.44,312.0578,281.8009,306.6968,279.9954,314.28,286.28" style="stroke:#181818;stroke-width:1.0;"/><text fill="#000000" font-family="sans-serif" font-size="13" lengthAdjust="spacing" textLength="27" x="297.56" y="252.447">uses</text></g><!--link Memory to SafeList--><g id="link_Memory_SafeList"><path codeLine="26" d="M176.66,207.76 C160.77,239.8 146.7461,268.0849 134.2961,293.1849 " fill="none" id="Memory-to-SafeList" style="stroke:#181818;stroke-width:1.0;"/><polygon fill="#181818" points="131.63,298.56,139.2126,292.2748,133.8518,294.0807,132.0458,288.7199,131.63,298.56" style="stroke:#181818;stroke-width:1.0;"/><text fill="#000000" font-family="sans-serif" font-size="13" lengthAdjust="spacing" textLength="27" x="159.79" y="252.447">uses</text></g><!--SRC=[TL7DIWCn4BxdAUQOKlS5GbaGF2e8FIubn6siW_afoQnsKT_TR3RPRWLp2lb-Pz8R5ICyQUl325yCqcdWPIJT7S0gTD9cg03e29o-a5J6-5uHUYVH7VMbu7lrgXynKlU0FNMHmjqaEIIhx2AD6lr0BBEt43_LESdvEVXJK5R0ytpP2FZmU5opaehFuZbFJBwtl9CcEHMFFBtF4woGcm8Jux-gDVKje7ldDUA7iJvlgifWjni83TBOjcLlMv0oHI5fAoLVrGG1zswyUfGn_wuxbw-xAHoU7-iycrgEWaxOTSvalHHhckyMJBgnygjDqowH0eQOGbR8efkXNm00]--></g></svg>