<?xml version="1.0" encoding="us-ascii" standalone="no"?><svg xmlns="http://www.w3.org/2000/svg" xmlns:xlink="http://www.w3.org/1999/xlink" contentStyleType="text/css" height="596px" preserveAspectRatio="none" style="width:721px;height:596px;background:#FFFFFF;" version="1.1" viewBox="0 0 721 596" width="721px" zoomAndPan="magnify"><defs/><g><!--class Memory--><g id="elem_Memory"><rect codeLine="1" fill="#F1F1F1" height="238.6792" id="Memory" rx="2.5" ry="2.5" style="stroke:#181818;stroke-width:0.5;" width="260" x="98.25" y="7"/><ellipse cx="196.5" cy="23" fill="#ADD1B2" rx="11" ry="11" style="stroke:#181818;stroke-width:1.0;"/><path d="M195.9688,29.9219 Q194.2188,29.9219 193.0781,29.1875 Q191.9531,28.4375 191.3906,27.0938 Q190.8438,25.7344 190.8438,23.9375 Q190.8438,21.9063 191.5,20.4531 Q192.1563,19 193.4375,18.2188 Q194.7188,17.4375 196.5938,17.4375 Q197.4844,17.4375 198.1563,17.625 Q198.8281,17.7969 199.5156,18.1406 L198.7031,20.1563 Q198.0781,19.8438 197.5313,19.7188 Q197,19.5938 196.5156,19.5938 Q195.3438,19.5938 194.6406,20.125 Q193.9375,20.6563 193.6406,21.6094 Q193.3438,22.5625 193.3438,23.8281 Q193.3438,25.8438 194.0625,26.8125 Q194.7813,27.7656 196.375,27.7656 Q196.9688,27.7656 197.5938,27.6094 Q198.2188,27.4531 199.0469,27.0781 L199.0469,29.2969 Q198.3125,29.6094 197.5156,29.7656 Q196.7344,29.9219 195.9688,29.9219 Z " fill="#000000"/><text fill="#000000" font-family="sans-serif" font-size="14" lengthAdjust="spacing" textLength="55" x="217" y="28.432">Memory</text><line style="stroke:#181818;stroke-width:0.5;" x1="99.25" x2="357.25" y1="39" y2="39"/><rect fill="none" height="6" style="stroke:#C82930;stroke-width:1.0;" width="6" x="106.25" y="51.034"/><text fill="#000000" font-family="sans-serif" font-size="14" lengthAdjust="spacing" textLength="109" x="118.25" y="57.9659">int memory_size</text><rect fill="none" height="6" style="stroke:#C82930;stroke-width:1.0;" width="6" x="106.25" y="70.1019"/><text fill="#000000" font-family="sans-serif" font-size="14" lengthAdjust="spacing" textLength="138" x="118.25" y="77.0339">Byte[] main_memory</text><rect fill="none" height="6" style="stroke:#C82930;stroke-width:1.0;" width="6" x="106.25" y="89.1698"/><text fill="#000000" font-family="sans-serif" font-size="14" lengthAdjust="spacing" textLength="234" x="118.25" y="96.1018">SafeList&lt;Segment&gt; memory_layout</text><line style="stroke:#181818;stroke-width:0.5;" x1="99.25" x2="357.25" y1="104.2038" y2="104.2038"/><ellipse cx="109.25" cy="119.2377" fill="#84BE84" rx="3" ry="3" style="stroke:#038048;stroke-width:1.0;"/><text fill="#000000" font-family="sans-serif" font-size="14" lengthAdjust="spacing" textLength="115" x="118.25" y="123.1697">Memory(size: int)</text><ellipse cx="109.25" cy="138.3056" fill="#84BE84" rx="3" ry="3" style="stroke:#038048;stroke-width:1.0;"/><text fill="#000000" font-family="sans-serif" font-size="14" lengthAdjust="spacing" textLength="223" x="118.25" y="142.2376">swap_in(program: Program): void</text><ellipse cx="109.25" cy="157.3735" fill="#84BE84" rx="3" ry="3" style="stroke:#038048;stroke-width:1.0;"/><text fill="#000000" font-family="sans-serif" font-size="14" lengthAdjust="spacing" textLength="217" x="118.25" y="161.3055">swap_out(layout_index: int): void</text><ellipse cx="109.25" cy="176.4415" fill="#84BE84" rx="3" ry="3" style="stroke:#038048;stroke-width:1.0;"/><text fill="#000000" font-family="sans-serif" font-size="14" lengthAdjust="spacing" textLength="119" x="118.25" y="180.3734">get_bytes(): Byte[]</text><ellipse cx="109.25" cy="195.5094" fill="#84BE84" rx="3" ry="3" style="stroke:#038048;stroke-width:1.0;"/><text fill="#000000" font-family="sans-serif" font-size="14" lengthAdjust="spacing" textLength="216" x="118.25" y="199.4414">get_memory_layout(): Segment[]</text><ellipse cx="109.25" cy="214.5773" fill="#84BE84" rx="3" ry="3" style="stroke:#038048;stroke-width:1.0;"/><text fill="#000000" font-family="sans-serif" font-size="14" lengthAdjust="spacing" textLength="202" x="118.25" y="218.5093">get_unallocated_memory(): int</text><ellipse cx="109.25" cy="233.6452" fill="#84BE84" rx="3" ry="3" style="stroke:#038048;stroke-width:1.0;"/><text fill="#000000" font-family="sans-serif" font-size="14" lengthAdjust="spacing" textLength="86" x="118.25" y="237.5772">shrink(): void</text></g><!--class Byte--><g id="elem_Byte"><rect codeLine="15" fill="#F1F1F1" height="80.4799" id="Byte" rx="2.5" ry="2.5" style="stroke:#181818;stroke-width:0.5;" width="160" x="36.25" y="508.88"/><ellipse cx="84" cy="531.586" fill="#ADD1B2" rx="11" ry="11" style="stroke:#181818;stroke-width:1.0;"/><path d="M83.4688,538.5079 Q81.7188,538.5079 80.5781,537.7735 Q79.4531,537.0235 78.8906,535.6798 Q78.3438,534.3204 78.3438,532.5235 Q78.3438,530.4923 79,529.0391 Q79.6563,527.586 80.9375,526.8048 Q82.2188,526.0235 84.0938,526.0235 Q84.9844,526.0235 85.6563,526.211 Q86.3281,526.3829 87.0156,526.7266 L86.2031,528.7423 Q85.5781,528.4298 85.0313,528.3048 Q84.5,528.1798 84.0156,528.1798 Q82.8438,528.1798 82.1406,528.711 Q81.4375,529.2423 81.1406,530.1954 Q80.8438,531.1485 80.8438,532.4141 Q80.8438,534.4298 81.5625,535.3985 Q82.2813,536.3516 83.875,536.3516 Q84.4688,536.3516 85.0938,536.1954 Q85.7188,536.0391 86.5469,535.6641 L86.5469,537.8829 Q85.8125,538.1954 85.0156,538.3516 Q84.2344,538.5079 83.4688,538.5079 Z " fill="#000000"/><text fill="#000000" font-family="sans-serif" font-size="12" font-style="italic" lengthAdjust="spacing" textLength="60" x="102.5" y="526.7081">&#171;datatype&#187;</text><text fill="#000000" font-family="sans-serif" font-size="14" lengthAdjust="spacing" textLength="29" x="118" y="545.19">Byte</text><line style="stroke:#181818;stroke-width:0.5;" x1="37.25" x2="195.25" y1="554.292" y2="554.292"/><ellipse cx="47.25" cy="569.326" fill="none" rx="3" ry="3" style="stroke:#038048;stroke-width:1.0;"/><text fill="#000000" font-family="sans-serif" font-size="14" lengthAdjust="spacing" textLength="134" x="56.25" y="573.258">int value {readOnly}</text><line style="stroke:#181818;stroke-width:0.5;" x1="37.25" x2="195.25" y1="581.3599" y2="581.3599"/></g><!--class Segment--><g id="elem_Segment"><rect codeLine="19" fill="#F1F1F1" height="105.2038" id="Segment" rx="2.5" ry="2.5" style="stroke:#181818;stroke-width:0.5;" width="175" x="94.75" y="324.68"/><ellipse cx="148" cy="340.68" fill="#ADD1B2" rx="11" ry="11" style="stroke:#181818;stroke-width:1.0;"/><path d="M147.4688,347.6019 Q145.7188,347.6019 144.5781,346.8675 Q143.4531,346.1175 142.8906,344.7738 Q142.3438,343.4144 142.3438,341.6175 Q142.3438,339.5863 143,338.1331 Q143.6563,336.68 144.9375,335.8988 Q146.2188,335.1175 148.0938,335.1175 Q148.9844,335.1175 149.6563,335.305 Q150.3281,335.4769 151.0156,335.8206 L150.2031,337.8363 Q149.5781,337.5238 149.0313,337.3988 Q148.5,337.2738 148.0156,337.2738 Q146.8438,337.2738 146.1406,337.805 Q145.4375,338.3363 145.1406,339.2894 Q144.8438,340.2425 144.8438,341.5081 Q144.8438,343.5238 145.5625,344.4925 Q146.2813,345.4456 147.875,345.4456 Q148.4688,345.4456 149.0938,345.2894 Q149.7188,345.1331 150.5469,344.7581 L150.5469,346.9769 Q149.8125,347.2894 149.0156,347.4456 Q148.2344,347.6019 147.4688,347.6019 Z " fill="#000000"/><text fill="#000000" font-family="sans-serif" font-size="14" lengthAdjust="spacing" textLength="60" x="168.5" y="346.112">Segment</text><line style="stroke:#181818;stroke-width:0.5;" x1="95.75" x2="268.75" y1="356.68" y2="356.68"/><ellipse cx="105.75" cy="371.714" fill="none" rx="3" ry="3" style="stroke:#038048;stroke-width:1.0;"/><text fill="#000000" font-family="sans-serif" font-size="14" lengthAdjust="spacing" textLength="149" x="114.75" y="375.6459">string type {readOnly}</text><ellipse cx="105.75" cy="390.7819" fill="none" rx="3" ry="3" style="stroke:#038048;stroke-width:1.0;"/><text fill="#000000" font-family="sans-serif" font-size="14" lengthAdjust="spacing" textLength="135" x="114.75" y="394.7139">int index {readOnly}</text><ellipse cx="105.75" cy="409.8498" fill="none" rx="3" ry="3" style="stroke:#038048;stroke-width:1.0;"/><text fill="#000000" font-family="sans-serif" font-size="14" lengthAdjust="spacing" textLength="124" x="114.75" y="413.7818">int size {readOnly}</text><line style="stroke:#181818;stroke-width:0.5;" x1="95.75" x2="268.75" y1="421.8838" y2="421.8838"/></g><!--class SafeList--><g id="elem_SafeList"><rect codeLine="25" fill="#F1F1F1" height="80.4799" id="SafeList" rx="2.5" ry="2.5" style="stroke:#181818;stroke-width:0.5;" width="210" x="504.25" y="337.04"/><ellipse cx="579" cy="359.746" fill="#ADD1B2" rx="11" ry="11" style="stroke:#181818;stroke-width:1.0;"/><path d="M578.4688,366.6679 Q576.7188,366.6679 575.5781,365.9335 Q574.4531,365.1835 573.8906,363.8398 Q573.3438,362.4804 573.3438,360.6835 Q573.3438,358.6523 574,357.1991 Q574.6563,355.746 575.9375,354.9648 Q577.2188,354.1835 579.0938,354.1835 Q579.9844,354.1835 580.6563,354.371 Q581.3281,354.5429 582.0156,354.8866 L581.2031,356.9023 Q580.5781,356.5898 580.0313,356.4648 Q579.5,356.3398 579.0156,356.3398 Q577.8438,356.3398 577.1406,356.871 Q576.4375,357.4023 576.1406,358.3554 Q575.8438,359.3085 575.8438,360.5741 Q575.8438,362.5898 576.5625,363.5585 Q577.2813,364.5116 578.875,364.5116 Q579.4688,364.5116 580.0938,364.3554 Q580.7188,364.1991 581.5469,363.8241 L581.5469,366.0429 Q580.8125,366.3554 580.0156,366.5116 Q579.2344,366.6679 578.4688,366.6679 Z " fill="#000000"/><text fill="#000000" font-family="sans-serif" font-size="12" font-style="italic" lengthAdjust="spacing" textLength="42" x="604.5" y="354.8681">&#171;utility&#187;</text><text fill="#000000" font-family="sans-serif" font-size="14" lengthAdjust="spacing" textLength="52" x="599.5" y="373.35">SafeList</text><line style="stroke:#181818;stroke-width:0.5;" x1="505.25" x2="713.25" y1="382.452" y2="382.452"/><line style="stroke:#181818;stroke-width:0.5;" x1="505.25" x2="713.25" y1="390.452" y2="390.452"/><ellipse cx="515.25" cy="405.486" fill="#84BE84" rx="3" ry="3" style="stroke:#038048;stroke-width:1.0;"/><text fill="#000000" font-family="sans-serif" font-size="14" lengthAdjust="spacing" textLength="184" x="524.25" y="409.418">__getitem__(index: int) : Any</text></g><!--class Program--><g id="elem_Program"><rect codeLine="29" fill="#F1F1F1" height="105.2038" id="Program" rx="2.5" ry="2.5" style="stroke:#181818;stroke-width:0.5;" width="164" x="305.25" y="324.68"/><ellipse cx="354" cy="340.68" fill="#ADD1B2" rx="11" ry="11" style="stroke:#181818;stroke-width:1.0;"/><path d="M353.4688,347.6019 Q351.7188,347.6019 350.5781,346.8675 Q349.4531,346.1175 348.8906,344.7738 Q348.3438,343.4144 348.3438,341.6175 Q348.3438,339.5863 349,338.1331 Q349.6563,336.68 350.9375,335.8988 Q352.2188,335.1175 354.0938,335.1175 Q354.9844,335.1175 355.6563,335.305 Q356.3281,335.4769 357.0156,335.8206 L356.2031,337.8363 Q355.5781,337.5238 355.0313,337.3988 Q354.5,337.2738 354.0156,337.2738 Q352.8438,337.2738 352.1406,337.805 Q351.4375,338.3363 351.1406,339.2894 Q350.8438,340.2425 350.8438,341.5081 Q350.8438,343.5238 351.5625,344.4925 Q352.2813,345.4456 353.875,345.4456 Q354.4688,345.4456 355.0938,345.2894 Q355.7188,345.1331 356.5469,344.7581 L356.5469,346.9769 Q355.8125,347.2894 355.0156,347.4456 Q354.2344,347.6019 353.4688,347.6019 Z " fill="#000000"/><text fill="#000000" font-family="sans-serif" font-size="14" lengthAdjust="spacing" textLength="58" x="374.5" y="346.112">Program</text><line style="stroke:#181818;stroke-width:0.5;" x1="306.25" x2="468.25" y1="356.68" y2="356.68"/><rect fill="none" height="6" style="stroke:#C82930;stroke-width:1.0;" width="6" x="313.25" y="368.714"/><text fill="#000000" font-family="sans-serif" font-size="14" lengthAdjust="spacing" textLength="79" x="325.25" y="375.6459">Byte[] bytes</text><line style="stroke:#181818;stroke-width:0.5;" x1="306.25" x2="468.25" y1="383.7479" y2="383.7479"/><ellipse cx="316.25" cy="398.7819" fill="#84BE84" rx="3" ry="3" style="stroke:#038048;stroke-width:1.0;"/><text fill="#000000" font-family="sans-serif" font-size="14" lengthAdjust="spacing" textLength="138" x="325.25" y="402.7139">Program(bytes: int[])</text><ellipse cx="316.25" cy="417.8498" fill="#84BE84" rx="3" ry="3" style="stroke:#038048;stroke-width:1.0;"/><text fill="#000000" font-family="sans-serif" font-size="14" lengthAdjust="spacing" textLength="102" x="325.25" y="421.7818">stream(): Byte[]</text></g><!--class list--><g id="elem_list"><rect fill="#F1F1F1" height="48" id="list" rx="2.5" ry="2.5" style="stroke:#181818;stroke-width:0.5;" width="52" x="583.25" y="525.12"/><ellipse cx="598.25" cy="541.12" fill="#ADD1B2" rx="11" ry="11" style="stroke:#181818;stroke-width:1.0;"/><path d="M597.7188,548.0419 Q595.9688,548.0419 594.8281,547.3075 Q593.7031,546.5575 593.1406,545.2138 Q592.5938,543.8544 592.5938,542.0575 Q592.5938,540.0263 593.25,538.5731 Q593.9063,537.12 595.1875,536.3388 Q596.4688,535.5575 598.3438,535.5575 Q599.2344,535.5575 599.9063,535.745 Q600.5781,535.9169 601.2656,536.2606 L600.4531,538.2763 Q599.8281,537.9638 599.2813,537.8388 Q598.75,537.7138 598.2656,537.7138 Q597.0938,537.7138 596.3906,538.245 Q595.6875,538.7763 595.3906,539.7294 Q595.0938,540.6825 595.0938,541.9481 Q595.0938,543.9638 595.8125,544.9325 Q596.5313,545.8856 598.125,545.8856 Q598.7188,545.8856 599.3438,545.7294 Q599.9688,545.5731 600.7969,545.1981 L600.7969,547.4169 Q600.0625,547.7294 599.2656,547.8856 Q598.4844,548.0419 597.7188,548.0419 Z " fill="#000000"/><text fill="#000000" font-family="sans-serif" font-size="14" lengthAdjust="spacing" textLength="20" x="612.25" y="546.552">list</text><line style="stroke:#181818;stroke-width:0.5;" x1="584.25" x2="634.25" y1="557.12" y2="557.12"/><line style="stroke:#181818;stroke-width:0.5;" x1="584.25" x2="634.25" y1="565.12" y2="565.12"/></g><!--link SafeList to list--><g id="link_SafeList_list"><path codeLine="36" d="M609.25,417.67 C609.25,450.79 609.25,491.03 609.25,518.64 " fill="none" id="SafeList-to-list" style="stroke:#181818;stroke-width:1.0;"/><polygon fill="#181818" points="609.25,524.64,613.25,515.64,609.25,519.64,605.25,515.64,609.25,524.64" style="stroke:#181818;stroke-width:1.0;"/><text fill="#000000" font-family="sans-serif" font-size="13" lengthAdjust="spacing" textLength="36" x="610.25" y="474.777">wraps</text></g><!--reverse link Memory to Program--><g id="link_Memory_Program"><path codeLine="37" d="M310.4786,256.0836 C328.0786,283.6436 339.46,301.46 354.09,324.36 " fill="none" id="Memory-backto-Program" style="stroke:#181818;stroke-width:1.0;"/><polygon fill="#181818" points="304.02,245.97,303.8781,253.1797,310.4786,256.0836,310.6205,248.8739,304.02,245.97" style="stroke:#181818;stroke-width:1.0;"/><text fill="#000000" font-family="sans-serif" font-size="13" lengthAdjust="spacing" textLength="27" x="332.28" y="290.577">uses</text></g><!--reverse link Memory to SafeList--><g id="link_Memory_SafeList"><path codeLine="38" d="M368.6156,219.054 C433.0456,261.154 497.67,303.37 548.64,336.68 " fill="none" id="Memory-backto-SafeList" style="stroke:#181818;stroke-width:1.0;"/><polygon fill="#181818" points="358.57,212.49,361.4048,219.1205,368.6156,219.054,365.7808,212.4235,358.57,212.49" style="stroke:#181818;stroke-width:1.0;"/><text fill="#000000" font-family="sans-serif" font-size="13" lengthAdjust="spacing" textLength="27" x="476.14" y="290.577">uses</text></g><!--reverse link Memory to Segment--><g id="link_Memory_Segment"><path codeLine="39" d="M204.1506,257.7704 C199.0606,285.3304 196.07,301.46 191.84,324.36 " fill="none" id="Memory-backto-Segment" style="stroke:#181818;stroke-width:1.0;"/><polygon fill="#181818" points="206.33,245.97,201.3068,251.1438,204.1506,257.7704,209.1738,252.5967,206.33,245.97" style="stroke:#181818;stroke-width:1.0;"/><text fill="#000000" font-family="sans-serif" font-size="13" lengthAdjust="spacing" textLength="51" x="200.78" y="290.577">contains</text></g><!--reverse link Memory to Byte--><g id="link_Memory_Byte"><path codeLine="40" d="M89.2743,231.3834 C59.4943,260.3934 40.45,286.45 24.25,324.68 C6,367.72 9.07,385.66 24.25,429.88 C34.38,459.4 55.23,487.23 74.52,508.46 " fill="none" id="Memory-backto-Byte" style="stroke:#181818;stroke-width:1.0;"/><polygon fill="#181818" points="97.87,223.01,90.781,224.3315,89.2743,231.3834,96.3633,230.0619,97.87,223.01" style="stroke:#181818;stroke-width:1.0;"/><text fill="#000000" font-family="sans-serif" font-size="13" lengthAdjust="spacing" textLength="51" x="25.25" y="382.677">contains</text></g><!--reverse link Program to Byte--><g id="link_Program_Byte"><path codeLine="41" d="M294.6717,436.3022 C254.3317,461.5822 216.72,485.15 179.34,508.58 " fill="none" id="Program-backto-Byte" style="stroke:#181818;stroke-width:1.0;"/><polygon fill="#181818" points="304.84,429.93,297.6318,429.7267,294.6717,436.3022,301.8799,436.5056,304.84,429.93" style="stroke:#181818;stroke-width:1.0;"/><text fill="#000000" font-family="sans-serif" font-size="13" lengthAdjust="spacing" textLength="51" x="252.75" y="474.777">contains</text></g><!--SRC=[RLBBReCm4Bpp5Nk4Hlo05I6rvrQjb6CKMIvigLLZ43P9tIZ_NjiiBmbEQ6TsPhoxfHB6m1isRU_Wde3_Sf3QGXDBtCW_fEgBitY-G2EavYDAm4byuQiqzdZ2ka5jYwbP2TSEDecq0vcaGP45YupgvYOwBdNQzMtTYuR1n_YJCRYsibgpl5ewYlg62dz7dGslHii_VLAJ-leOUOLiWWK6HTwG1YsKQajXiQA6mFHEKvJlNkgVTF9z94aPfnZSu7YiX1NMTLWKDD137EXLg07XtgEethLoZwMFCiniOxr-3K5ZpL-aujlteJ3TVHDQaWyuMAcaTQjydFjtIuiDv-bgiC3WMRj5WnOptmbTH1ptj6NYfB4OPSwNR7aOUcXPZ5UUS-Lv0IhyCBZreZC97ULJdi_630Q36sHktu5eh0pALbj_jHiqBci5JHOxs3y0]--></g></svg>