<?xml version="1.0" encoding="us-ascii" standalone="no"?><svg xmlns="http://www.w3.org/2000/svg" xmlns:xlink="http://www.w3.org/1999/xlink" contentStyleType="text/css" height="381px" preserveAspectRatio="none" style="width:297px;height:381px;background:#FFFFFF;" version="1.1" viewBox="0 0 297 381" width="297px" zoomAndPan="magnify"><defs/><g><!--class Memory--><g id="elem_Memory"><rect codeLine="1" fill="#F1F1F1" height="188.875" id="Memory" rx="2.5" ry="2.5" style="stroke:#181818;stroke-width:0.5;" width="283" x="7" y="7"/><ellipse cx="119.25" cy="23" fill="#ADD1B2" rx="11" ry="11" style="stroke:#181818;stroke-width:1.0;"/><path d="M122.0156,18.875 Q122.1719,18.6563 122.3594,18.5469 Q122.5469,18.4375 122.7656,18.4375 Q123.1406,18.4375 123.375,18.6953 Q123.6094,18.9531 123.6094,19.5625 L123.6094,21.0156 Q123.6094,21.625 123.375,21.8906 Q123.1406,22.1563 122.7656,22.1563 Q122.4219,22.1563 122.2188,21.9531 Q122.0156,21.7656 121.9063,21.25 Q121.8594,20.8906 121.6719,20.7031 Q121.3438,20.3281 120.7344,20.1094 Q120.125,19.8906 119.5,19.8906 Q118.7344,19.8906 118.1016,20.2188 Q117.4688,20.5469 116.9766,21.2969 Q116.4844,22.0469 116.4844,23.0781 L116.4844,24.1719 Q116.4844,25.4063 117.375,26.2266 Q118.2656,27.0469 119.8594,27.0469 Q120.7969,27.0469 121.4531,26.7969 Q121.8438,26.6406 122.2656,26.2031 Q122.5313,25.9375 122.6797,25.8594 Q122.8281,25.7813 123.0313,25.7813 Q123.3594,25.7813 123.6172,26.0391 Q123.875,26.2969 123.875,26.6406 Q123.875,26.9844 123.5313,27.3906 Q123.0313,27.9688 122.2344,28.2969 Q121.1563,28.75 119.8594,28.75 Q118.3438,28.75 117.1406,28.125 Q116.1563,27.625 115.4688,26.5547 Q114.7813,25.4844 114.7813,24.2031 L114.7813,23.0469 Q114.7813,21.7188 115.3984,20.5703 Q116.0156,19.4219 117.1094,18.8047 Q118.2031,18.1875 119.4375,18.1875 Q120.1719,18.1875 120.8203,18.3516 Q121.4688,18.5156 122.0156,18.875 Z " fill="#000000"/><text fill="#000000" font-family="sans-serif" font-size="14" lengthAdjust="spacing" textLength="50" x="139.75" y="28.7285">Memory</text><line style="stroke:#181818;stroke-width:0.5;" x1="8" x2="289" y1="39" y2="39"/><rect fill="none" height="6" style="stroke:#C82930;stroke-width:1.0;" width="6" x="15" y="50.3047"/><text fill="#000000" font-family="sans-serif" font-size="14" lengthAdjust="spacing" textLength="127" x="27" y="57.5332">byte[] main_memory</text><rect fill="none" height="6" style="stroke:#C82930;stroke-width:1.0;" width="6" x="15" y="67.9141"/><text fill="#000000" font-family="sans-serif" font-size="14" lengthAdjust="spacing" textLength="154" x="27" y="75.1426">int next_allocation_index</text><rect fill="none" height="6" style="stroke:#C82930;stroke-width:1.0;" width="6" x="15" y="85.5234"/><text fill="#000000" font-family="sans-serif" font-size="14" lengthAdjust="spacing" textLength="205" x="27" y="92.752">List&lt;Tuple&lt;int&gt;&gt; memory_layout</text><line style="stroke:#181818;stroke-width:0.5;" x1="8" x2="289" y1="99.8281" y2="99.8281"/><ellipse cx="18" cy="114.1328" fill="#84BE84" rx="3" ry="3" style="stroke:#038048;stroke-width:1.0;"/><text fill="#000000" font-family="sans-serif" font-size="14" lengthAdjust="spacing" textLength="210" x="27" y="118.3613">swap_in(program: Program): void</text><ellipse cx="18" cy="131.7422" fill="#84BE84" rx="3" ry="3" style="stroke:#038048;stroke-width:1.0;"/><text fill="#000000" font-family="sans-serif" font-size="14" lengthAdjust="spacing" textLength="257" x="27" y="135.9707">swap_out(program_start_index: int): void</text><ellipse cx="18" cy="149.3516" fill="#84BE84" rx="3" ry="3" style="stroke:#038048;stroke-width:1.0;"/><text fill="#000000" font-family="sans-serif" font-size="14" lengthAdjust="spacing" textLength="115" x="27" y="153.5801">get_bytes(): byte[]</text><ellipse cx="18" cy="166.9609" fill="#84BE84" rx="3" ry="3" style="stroke:#038048;stroke-width:1.0;"/><text fill="#000000" font-family="sans-serif" font-size="14" lengthAdjust="spacing" textLength="243" x="27" y="171.1895">get_memory_layout(): List[Dict[str, int]]</text><ellipse cx="18" cy="184.5703" fill="#84BE84" rx="3" ry="3" style="stroke:#038048;stroke-width:1.0;"/><text fill="#000000" font-family="sans-serif" font-size="14" lengthAdjust="spacing" textLength="82" x="27" y="188.7988">shrink(): void</text></g><!--class Program--><g id="elem_Program"><rect codeLine="13" fill="#F1F1F1" height="100.8281" id="Program" rx="2.5" ry="2.5" style="stroke:#181818;stroke-width:0.5;" width="167" x="65" y="274"/><ellipse cx="117.25" cy="290" fill="#ADD1B2" rx="11" ry="11" style="stroke:#181818;stroke-width:1.0;"/><path d="M120.0156,285.875 Q120.1719,285.6563 120.3594,285.5469 Q120.5469,285.4375 120.7656,285.4375 Q121.1406,285.4375 121.375,285.6953 Q121.6094,285.9531 121.6094,286.5625 L121.6094,288.0156 Q121.6094,288.625 121.375,288.8906 Q121.1406,289.1563 120.7656,289.1563 Q120.4219,289.1563 120.2188,288.9531 Q120.0156,288.7656 119.9063,288.25 Q119.8594,287.8906 119.6719,287.7031 Q119.3438,287.3281 118.7344,287.1094 Q118.125,286.8906 117.5,286.8906 Q116.7344,286.8906 116.1016,287.2188 Q115.4688,287.5469 114.9766,288.2969 Q114.4844,289.0469 114.4844,290.0781 L114.4844,291.1719 Q114.4844,292.4063 115.375,293.2266 Q116.2656,294.0469 117.8594,294.0469 Q118.7969,294.0469 119.4531,293.7969 Q119.8438,293.6406 120.2656,293.2031 Q120.5313,292.9375 120.6797,292.8594 Q120.8281,292.7813 121.0313,292.7813 Q121.3594,292.7813 121.6172,293.0391 Q121.875,293.2969 121.875,293.6406 Q121.875,293.9844 121.5313,294.3906 Q121.0313,294.9688 120.2344,295.2969 Q119.1563,295.75 117.8594,295.75 Q116.3438,295.75 115.1406,295.125 Q114.1563,294.625 113.4688,293.5547 Q112.7813,292.4844 112.7813,291.2031 L112.7813,290.0469 Q112.7813,288.7188 113.3984,287.5703 Q114.0156,286.4219 115.1094,285.8047 Q116.2031,285.1875 117.4375,285.1875 Q118.1719,285.1875 118.8203,285.3516 Q119.4688,285.5156 120.0156,285.875 Z " fill="#000000"/><text fill="#000000" font-family="sans-serif" font-size="14" lengthAdjust="spacing" textLength="54" x="137.75" y="295.7285">Program</text><line style="stroke:#181818;stroke-width:0.5;" x1="66" x2="231" y1="306" y2="306"/><rect fill="none" height="6" style="stroke:#C82930;stroke-width:1.0;" width="6" x="73" y="317.3047"/><text fill="#000000" font-family="sans-serif" font-size="14" lengthAdjust="spacing" textLength="73" x="85" y="324.5332">byte[] bytes</text><line style="stroke:#181818;stroke-width:0.5;" x1="66" x2="231" y1="331.6094" y2="331.6094"/><ellipse cx="76" cy="345.9141" fill="#84BE84" rx="3" ry="3" style="stroke:#038048;stroke-width:1.0;"/><text fill="#000000" font-family="sans-serif" font-size="14" lengthAdjust="spacing" textLength="141" x="85" y="350.1426">Program(byte: bytes[])</text><ellipse cx="76" cy="363.5234" fill="#84BE84" rx="3" ry="3" style="stroke:#038048;stroke-width:1.0;"/><text fill="#000000" font-family="sans-serif" font-size="14" lengthAdjust="spacing" textLength="96" x="85" y="367.752">stream(): byte[]</text></g><!--link Memory to Program--><g id="link_Memory_Program"><path codeLine="20" d="M148.5,196.22 C148.5,222.93 148.5,244.97 148.5,267.92 " fill="none" id="Memory-to-Program" style="stroke:#181818;stroke-width:1.0;"/><polygon fill="#181818" points="148.5,273.92,152.5,264.92,148.5,268.92,144.5,264.92,148.5,273.92" style="stroke:#181818;stroke-width:1.0;"/><text fill="#000000" font-family="sans-serif" font-size="13" lengthAdjust="spacing" textLength="28" x="149.5" y="240.4951">uses</text></g><!--SRC=[NP0z3i8m38Ntdi9ZA-W5AjI94IG6jggAGeaW8asgs0KgnDr9ceI_J97Vv-TdTueZmbRqnaxmoC2z4WuJYQQ5dalD-bcAWjG4Mjo9SQLCnqaQpQG-YdlKDn9fjHy79LOEhMi8tKpnoOoKpTG2yCO7rvOFrfmixolOXKzHmTN8upVbkXB6aBYbCAxoINxnao3cSsFkwc61B-KdXoTyqcOjEsgGxDBRjOd7ivNwaYVxPvPryv5YolyhpKFJQf79VJ74mAOjaZ5PuRHFFcSTBr-MzTk_WX45lW00]--></g></svg>