<?xml version="1.0" encoding="us-ascii" standalone="no"?><svg xmlns="http://www.w3.org/2000/svg" xmlns:xlink="http://www.w3.org/1999/xlink" contentStyleType="text/css" height="940px" preserveAspectRatio="none" style="width:669px;height:940px;background:#FFFFFF;" version="1.1" viewBox="0 0 669 940" width="669px" zoomAndPan="magnify"><defs/><g><!--class Memory--><g id="elem_Memory"><rect codeLine="1" fill="#F1F1F1" height="238.6792" id="Memory" rx="2.5" ry="2.5" style="stroke:#181818;stroke-width:0.5;" width="260" x="106.97" y="375.55"/><ellipse cx="205.22" cy="391.55" fill="#ADD1B2" rx="11" ry="11" style="stroke:#181818;stroke-width:1.0;"/><path d="M204.6888,398.4719 Q202.9388,398.4719 201.7981,397.7375 Q200.6731,396.9875 200.1106,395.6438 Q199.5638,394.2844 199.5638,392.4875 Q199.5638,390.4563 200.22,389.0031 Q200.8763,387.55 202.1575,386.7688 Q203.4388,385.9875 205.3138,385.9875 Q206.2044,385.9875 206.8763,386.175 Q207.5481,386.3469 208.2356,386.6906 L207.4231,388.7063 Q206.7981,388.3938 206.2513,388.2688 Q205.72,388.1438 205.2356,388.1438 Q204.0638,388.1438 203.3606,388.675 Q202.6575,389.2063 202.3606,390.1594 Q202.0638,391.1125 202.0638,392.3781 Q202.0638,394.3938 202.7825,395.3625 Q203.5013,396.3156 205.095,396.3156 Q205.6888,396.3156 206.3138,396.1594 Q206.9388,396.0031 207.7669,395.6281 L207.7669,397.8469 Q207.0325,398.1594 206.2356,398.3156 Q205.4544,398.4719 204.6888,398.4719 Z " fill="#000000"/><text fill="#000000" font-family="sans-serif" font-size="14" lengthAdjust="spacing" textLength="55" x="225.72" y="396.982">Memory</text><line style="stroke:#181818;stroke-width:0.5;" x1="107.97" x2="365.97" y1="407.55" y2="407.55"/><rect fill="none" height="6" style="stroke:#C82930;stroke-width:1.0;" width="6" x="114.97" y="419.584"/><text fill="#000000" font-family="sans-serif" font-size="14" lengthAdjust="spacing" textLength="109" x="126.97" y="426.5159">int memory_size</text><rect fill="none" height="6" style="stroke:#C82930;stroke-width:1.0;" width="6" x="114.97" y="438.6519"/><text fill="#000000" font-family="sans-serif" font-size="14" lengthAdjust="spacing" textLength="138" x="126.97" y="445.5839">Byte[] main_memory</text><rect fill="none" height="6" style="stroke:#C82930;stroke-width:1.0;" width="6" x="114.97" y="457.7198"/><text fill="#000000" font-family="sans-serif" font-size="14" lengthAdjust="spacing" textLength="234" x="126.97" y="464.6518">SafeList&lt;Segment&gt; memory_layout</text><line style="stroke:#181818;stroke-width:0.5;" x1="107.97" x2="365.97" y1="472.7538" y2="472.7538"/><ellipse cx="117.97" cy="487.7877" fill="#84BE84" rx="3" ry="3" style="stroke:#038048;stroke-width:1.0;"/><text fill="#000000" font-family="sans-serif" font-size="14" lengthAdjust="spacing" textLength="115" x="126.97" y="491.7197">Memory(size: int)</text><ellipse cx="117.97" cy="506.8556" fill="#84BE84" rx="3" ry="3" style="stroke:#038048;stroke-width:1.0;"/><text fill="#000000" font-family="sans-serif" font-size="14" lengthAdjust="spacing" textLength="223" x="126.97" y="510.7876">swap_in(program: Program): void</text><ellipse cx="117.97" cy="525.9235" fill="#84BE84" rx="3" ry="3" style="stroke:#038048;stroke-width:1.0;"/><text fill="#000000" font-family="sans-serif" font-size="14" lengthAdjust="spacing" textLength="217" x="126.97" y="529.8555">swap_out(layout_index: int): void</text><ellipse cx="117.97" cy="544.9915" fill="#84BE84" rx="3" ry="3" style="stroke:#038048;stroke-width:1.0;"/><text fill="#000000" font-family="sans-serif" font-size="14" lengthAdjust="spacing" textLength="119" x="126.97" y="548.9234">get_bytes(): Byte[]</text><ellipse cx="117.97" cy="564.0594" fill="#84BE84" rx="3" ry="3" style="stroke:#038048;stroke-width:1.0;"/><text fill="#000000" font-family="sans-serif" font-size="14" lengthAdjust="spacing" textLength="216" x="126.97" y="567.9914">get_memory_layout(): Segment[]</text><ellipse cx="117.97" cy="583.1273" fill="#84BE84" rx="3" ry="3" style="stroke:#038048;stroke-width:1.0;"/><text fill="#000000" font-family="sans-serif" font-size="14" lengthAdjust="spacing" textLength="202" x="126.97" y="587.0593">get_unallocated_memory(): int</text><ellipse cx="117.97" cy="602.1952" fill="#84BE84" rx="3" ry="3" style="stroke:#038048;stroke-width:1.0;"/><text fill="#000000" font-family="sans-serif" font-size="14" lengthAdjust="spacing" textLength="86" x="126.97" y="606.1272">shrink(): void</text></g><!--class RAM--><g id="elem_RAM"><rect codeLine="15" fill="#F1F1F1" height="67.0679" id="RAM" rx="2.5" ry="2.5" style="stroke:#181818;stroke-width:0.5;" width="189" x="35.47" y="238.94"/><ellipse cx="110.22" cy="254.94" fill="#ADD1B2" rx="11" ry="11" style="stroke:#181818;stroke-width:1.0;"/><path d="M109.6888,261.8619 Q107.9388,261.8619 106.7981,261.1275 Q105.6731,260.3775 105.1106,259.0338 Q104.5638,257.6744 104.5638,255.8775 Q104.5638,253.8463 105.22,252.3931 Q105.8763,250.94 107.1575,250.1588 Q108.4388,249.3775 110.3138,249.3775 Q111.2044,249.3775 111.8763,249.565 Q112.5481,249.7369 113.2356,250.0806 L112.4231,252.0963 Q111.7981,251.7838 111.2513,251.6588 Q110.72,251.5338 110.2356,251.5338 Q109.0638,251.5338 108.3606,252.065 Q107.6575,252.5963 107.3606,253.5494 Q107.0638,254.5025 107.0638,255.7681 Q107.0638,257.7838 107.7825,258.7525 Q108.5013,259.7056 110.095,259.7056 Q110.6888,259.7056 111.3138,259.5494 Q111.9388,259.3931 112.7669,259.0181 L112.7669,261.2369 Q112.0325,261.5494 111.2356,261.7056 Q110.4544,261.8619 109.6888,261.8619 Z " fill="#000000"/><text fill="#000000" font-family="sans-serif" font-size="14" lengthAdjust="spacing" textLength="31" x="130.72" y="260.372">RAM</text><line style="stroke:#181818;stroke-width:0.5;" x1="36.47" x2="223.47" y1="270.94" y2="270.94"/><line style="stroke:#181818;stroke-width:0.5;" x1="36.47" x2="223.47" y1="278.94" y2="278.94"/><ellipse cx="46.47" cy="293.974" fill="#84BE84" rx="3" ry="3" style="stroke:#038048;stroke-width:1.0;"/><text fill="#000000" font-family="sans-serif" font-size="14" lengthAdjust="spacing" textLength="163" x="55.47" y="297.9059">RAM(memory_size: Byte)</text></g><!--class Disc--><g id="elem_Disc"><rect codeLine="19" fill="#F1F1F1" height="86.1358" id="Disc" rx="2.5" ry="2.5" style="stroke:#181818;stroke-width:0.5;" width="169" x="259.47" y="229.41"/><ellipse cx="325.72" cy="245.41" fill="#ADD1B2" rx="11" ry="11" style="stroke:#181818;stroke-width:1.0;"/><path d="M325.1887,252.3319 Q323.4387,252.3319 322.2981,251.5975 Q321.1731,250.8475 320.6106,249.5038 Q320.0637,248.1444 320.0637,246.3475 Q320.0637,244.3163 320.72,242.8631 Q321.3762,241.41 322.6575,240.6288 Q323.9387,239.8475 325.8137,239.8475 Q326.7044,239.8475 327.3762,240.035 Q328.0481,240.2069 328.7356,240.5506 L327.9231,242.5663 Q327.2981,242.2538 326.7512,242.1288 Q326.22,242.0038 325.7356,242.0038 Q324.5637,242.0038 323.8606,242.535 Q323.1575,243.0663 322.8606,244.0194 Q322.5637,244.9725 322.5637,246.2381 Q322.5637,248.2538 323.2825,249.2225 Q324.0012,250.1756 325.595,250.1756 Q326.1887,250.1756 326.8137,250.0194 Q327.4387,249.8631 328.2669,249.4881 L328.2669,251.7069 Q327.5325,252.0194 326.7356,252.1756 Q325.9544,252.3319 325.1887,252.3319 Z " fill="#000000"/><text fill="#000000" font-family="sans-serif" font-size="14" lengthAdjust="spacing" textLength="28" x="346.22" y="250.842">Disc</text><line style="stroke:#181818;stroke-width:0.5;" x1="260.47" x2="427.47" y1="261.41" y2="261.41"/><line style="stroke:#181818;stroke-width:0.5;" x1="260.47" x2="427.47" y1="269.41" y2="269.41"/><ellipse cx="270.47" cy="284.444" fill="#84BE84" rx="3" ry="3" style="stroke:#038048;stroke-width:1.0;"/><text fill="#000000" font-family="sans-serif" font-size="14" lengthAdjust="spacing" textLength="36" x="279.47" y="288.3759">Disc()</text><ellipse cx="270.47" cy="303.5119" fill="#84BE84" rx="3" ry="3" style="stroke:#038048;stroke-width:1.0;"/><text fill="#000000" font-family="sans-serif" font-size="14" lengthAdjust="spacing" textLength="143" x="279.47" y="307.4439">expand_disc(size: int)</text></g><!--class Byte--><g id="elem_Byte"><rect codeLine="24" fill="#F1F1F1" height="80.4799" id="Byte" rx="2.5" ry="2.5" style="stroke:#181818;stroke-width:0.5;" width="160" x="86.97" y="852.84"/><ellipse cx="134.72" cy="875.546" fill="#ADD1B2" rx="11" ry="11" style="stroke:#181818;stroke-width:1.0;"/><path d="M134.1888,882.4679 Q132.4388,882.4679 131.2981,881.7335 Q130.1731,880.9835 129.6106,879.6398 Q129.0638,878.2804 129.0638,876.4835 Q129.0638,874.4523 129.72,872.9991 Q130.3763,871.546 131.6575,870.7648 Q132.9388,869.9835 134.8138,869.9835 Q135.7044,869.9835 136.3763,870.171 Q137.0481,870.3429 137.7356,870.6866 L136.9231,872.7023 Q136.2981,872.3898 135.7513,872.2648 Q135.22,872.1398 134.7356,872.1398 Q133.5638,872.1398 132.8606,872.671 Q132.1575,873.2023 131.8606,874.1554 Q131.5638,875.1085 131.5638,876.3741 Q131.5638,878.3898 132.2825,879.3585 Q133.0013,880.3116 134.595,880.3116 Q135.1888,880.3116 135.8138,880.1554 Q136.4388,879.9991 137.2669,879.6241 L137.2669,881.8429 Q136.5325,882.1554 135.7356,882.3116 Q134.9544,882.4679 134.1888,882.4679 Z " fill="#000000"/><text fill="#000000" font-family="sans-serif" font-size="12" font-style="italic" lengthAdjust="spacing" textLength="60" x="153.22" y="870.6681">&#171;datatype&#187;</text><text fill="#000000" font-family="sans-serif" font-size="14" lengthAdjust="spacing" textLength="29" x="168.72" y="889.15">Byte</text><line style="stroke:#181818;stroke-width:0.5;" x1="87.97" x2="245.97" y1="898.252" y2="898.252"/><ellipse cx="97.97" cy="913.286" fill="none" rx="3" ry="3" style="stroke:#038048;stroke-width:1.0;"/><text fill="#000000" font-family="sans-serif" font-size="14" lengthAdjust="spacing" textLength="134" x="106.97" y="917.218">int value {readOnly}</text><line style="stroke:#181818;stroke-width:0.5;" x1="87.97" x2="245.97" y1="925.3199" y2="925.3199"/></g><!--class Segment--><g id="elem_Segment"><rect codeLine="28" fill="#F1F1F1" height="105.2038" id="Segment" rx="2.5" ry="2.5" style="stroke:#181818;stroke-width:0.5;" width="175" x="47.47" y="680.93"/><ellipse cx="100.72" cy="696.93" fill="#ADD1B2" rx="11" ry="11" style="stroke:#181818;stroke-width:1.0;"/><path d="M100.1888,703.8519 Q98.4388,703.8519 97.2981,703.1175 Q96.1731,702.3675 95.6106,701.0238 Q95.0638,699.6644 95.0638,697.8675 Q95.0638,695.8363 95.72,694.3831 Q96.3763,692.93 97.6575,692.1488 Q98.9388,691.3675 100.8138,691.3675 Q101.7044,691.3675 102.3763,691.555 Q103.0481,691.7269 103.7356,692.0706 L102.9231,694.0863 Q102.2981,693.7738 101.7513,693.6488 Q101.22,693.5238 100.7356,693.5238 Q99.5638,693.5238 98.8606,694.055 Q98.1575,694.5863 97.8606,695.5394 Q97.5638,696.4925 97.5638,697.7581 Q97.5638,699.7738 98.2825,700.7425 Q99.0013,701.6956 100.595,701.6956 Q101.1888,701.6956 101.8138,701.5394 Q102.4388,701.3831 103.2669,701.0081 L103.2669,703.2269 Q102.5325,703.5394 101.7356,703.6956 Q100.9544,703.8519 100.1888,703.8519 Z " fill="#000000"/><text fill="#000000" font-family="sans-serif" font-size="14" lengthAdjust="spacing" textLength="60" x="121.22" y="702.362">Segment</text><line style="stroke:#181818;stroke-width:0.5;" x1="48.47" x2="221.47" y1="712.93" y2="712.93"/><ellipse cx="58.47" cy="727.964" fill="none" rx="3" ry="3" style="stroke:#038048;stroke-width:1.0;"/><text fill="#000000" font-family="sans-serif" font-size="14" lengthAdjust="spacing" textLength="149" x="67.47" y="731.8959">string type {readOnly}</text><ellipse cx="58.47" cy="747.0319" fill="none" rx="3" ry="3" style="stroke:#038048;stroke-width:1.0;"/><text fill="#000000" font-family="sans-serif" font-size="14" lengthAdjust="spacing" textLength="135" x="67.47" y="750.9639">int index {readOnly}</text><ellipse cx="58.47" cy="766.0998" fill="none" rx="3" ry="3" style="stroke:#038048;stroke-width:1.0;"/><text fill="#000000" font-family="sans-serif" font-size="14" lengthAdjust="spacing" textLength="124" x="67.47" y="770.0318">int size {readOnly}</text><line style="stroke:#181818;stroke-width:0.5;" x1="48.47" x2="221.47" y1="778.1338" y2="778.1338"/></g><!--class OS--><g id="elem_OS"><rect codeLine="34" fill="#F1F1F1" height="162.4075" id="OS" rx="2.5" ry="2.5" style="stroke:#181818;stroke-width:0.5;" width="318" x="77.97" y="7"/><ellipse cx="223.22" cy="23" fill="#ADD1B2" rx="11" ry="11" style="stroke:#181818;stroke-width:1.0;"/><path d="M222.6888,29.9219 Q220.9388,29.9219 219.7981,29.1875 Q218.6731,28.4375 218.1106,27.0938 Q217.5638,25.7344 217.5638,23.9375 Q217.5638,21.9063 218.22,20.4531 Q218.8763,19 220.1575,18.2188 Q221.4388,17.4375 223.3138,17.4375 Q224.2044,17.4375 224.8763,17.625 Q225.5481,17.7969 226.2356,18.1406 L225.4231,20.1563 Q224.7981,19.8438 224.2513,19.7188 Q223.72,19.5938 223.2356,19.5938 Q222.0638,19.5938 221.3606,20.125 Q220.6575,20.6563 220.3606,21.6094 Q220.0638,22.5625 220.0638,23.8281 Q220.0638,25.8438 220.7825,26.8125 Q221.5013,27.7656 223.095,27.7656 Q223.6888,27.7656 224.3138,27.6094 Q224.9388,27.4531 225.7669,27.0781 L225.7669,29.2969 Q225.0325,29.6094 224.2356,29.7656 Q223.4544,29.9219 222.6888,29.9219 Z " fill="#000000"/><text fill="#000000" font-family="sans-serif" font-size="14" lengthAdjust="spacing" textLength="19" x="243.72" y="28.432">OS</text><line style="stroke:#181818;stroke-width:0.5;" x1="78.97" x2="394.97" y1="39" y2="39"/><line style="stroke:#181818;stroke-width:0.5;" x1="78.97" x2="394.97" y1="47" y2="47"/><ellipse cx="88.97" cy="62.034" fill="#84BE84" rx="3" ry="3" style="stroke:#038048;stroke-width:1.0;"/><text fill="#000000" font-family="sans-serif" font-size="14" lengthAdjust="spacing" textLength="123" x="97.97" y="65.9659">OS(ram_size: Byte)</text><ellipse cx="88.97" cy="81.1019" fill="#84BE84" rx="3" ry="3" style="stroke:#038048;stroke-width:1.0;"/><text fill="#000000" font-family="sans-serif" font-size="14" lengthAdjust="spacing" textLength="292" x="97.97" y="85.0339">load_program_into_ram(program: Program)</text><ellipse cx="88.97" cy="100.1698" fill="#84BE84" rx="3" ry="3" style="stroke:#038048;stroke-width:1.0;"/><text fill="#000000" font-family="sans-serif" font-size="14" lengthAdjust="spacing" textLength="292" x="97.97" y="104.1018">load_program_into_disc(program: Program)</text><ellipse cx="88.97" cy="119.2377" fill="#84BE84" rx="3" ry="3" style="stroke:#038048;stroke-width:1.0;"/><text fill="#000000" font-family="sans-serif" font-size="14" lengthAdjust="spacing" textLength="256" x="97.97" y="123.1697">swap_ram_to_disc(program_index: int)</text><ellipse cx="88.97" cy="138.3056" fill="#84BE84" rx="3" ry="3" style="stroke:#038048;stroke-width:1.0;"/><text fill="#000000" font-family="sans-serif" font-size="14" lengthAdjust="spacing" textLength="256" x="97.97" y="142.2376">swap_disc_to_ram(program_index: int)</text><ellipse cx="88.97" cy="157.3735" fill="#84BE84" rx="3" ry="3" style="stroke:#038048;stroke-width:1.0;"/><text fill="#000000" font-family="sans-serif" font-size="14" lengthAdjust="spacing" textLength="83" x="97.97" y="161.3055">shrink_ram()</text></g><!--class SafeList--><g id="elem_SafeList"><rect codeLine="43" fill="#F1F1F1" height="118.6158" id="SafeList" rx="2.5" ry="2.5" style="stroke:#181818;stroke-width:0.5;" width="205" x="457.47" y="674.22"/><ellipse cx="529.72" cy="696.926" fill="#ADD1B2" rx="11" ry="11" style="stroke:#181818;stroke-width:1.0;"/><path d="M529.1888,703.8479 Q527.4388,703.8479 526.2981,703.1135 Q525.1731,702.3635 524.6106,701.0198 Q524.0638,699.6604 524.0638,697.8635 Q524.0638,695.8323 524.72,694.3791 Q525.3763,692.926 526.6575,692.1448 Q527.9388,691.3635 529.8138,691.3635 Q530.7044,691.3635 531.3763,691.551 Q532.0481,691.7229 532.7356,692.0666 L531.9231,694.0823 Q531.2981,693.7698 530.7513,693.6448 Q530.22,693.5198 529.7356,693.5198 Q528.5638,693.5198 527.8606,694.051 Q527.1575,694.5823 526.8606,695.5354 Q526.5638,696.4885 526.5638,697.7541 Q526.5638,699.7698 527.2825,700.7385 Q528.0013,701.6916 529.595,701.6916 Q530.1888,701.6916 530.8138,701.5354 Q531.4388,701.3791 532.2669,701.0041 L532.2669,703.2229 Q531.5325,703.5354 530.7356,703.6916 Q529.9544,703.8479 529.1888,703.8479 Z " fill="#000000"/><text fill="#000000" font-family="sans-serif" font-size="12" font-style="italic" lengthAdjust="spacing" textLength="42" x="555.22" y="692.0481">&#171;utility&#187;</text><text fill="#000000" font-family="sans-serif" font-size="14" lengthAdjust="spacing" textLength="52" x="550.22" y="710.53">SafeList</text><line style="stroke:#181818;stroke-width:0.5;" x1="458.47" x2="661.47" y1="719.632" y2="719.632"/><line style="stroke:#181818;stroke-width:0.5;" x1="458.47" x2="661.47" y1="727.632" y2="727.632"/><ellipse cx="468.47" cy="742.666" fill="#84BE84" rx="3" ry="3" style="stroke:#038048;stroke-width:1.0;"/><text fill="#000000" font-family="sans-serif" font-size="14" lengthAdjust="spacing" textLength="179" x="477.47" y="746.598">__getitem__(index: int): any</text><ellipse cx="468.47" cy="761.7339" fill="#84BE84" rx="3" ry="3" style="stroke:#038048;stroke-width:1.0;"/><text fill="#000000" font-family="sans-serif" font-size="14" lengthAdjust="spacing" textLength="91" x="477.47" y="765.6659">__repr__() : str</text><ellipse cx="468.47" cy="780.8018" fill="#84BE84" rx="3" ry="3" style="stroke:#038048;stroke-width:1.0;"/><text fill="#000000" font-family="sans-serif" font-size="14" lengthAdjust="spacing" textLength="129" x="477.47" y="784.7338">pop(index: int): any</text></g><!--class Program--><g id="elem_Program"><rect codeLine="49" fill="#F1F1F1" height="105.2038" id="Program" rx="2.5" ry="2.5" style="stroke:#181818;stroke-width:0.5;" width="164" x="257.97" y="680.93"/><ellipse cx="306.72" cy="696.93" fill="#ADD1B2" rx="11" ry="11" style="stroke:#181818;stroke-width:1.0;"/><path d="M306.1887,703.8519 Q304.4387,703.8519 303.2981,703.1175 Q302.1731,702.3675 301.6106,701.0238 Q301.0637,699.6644 301.0637,697.8675 Q301.0637,695.8363 301.72,694.3831 Q302.3762,692.93 303.6575,692.1488 Q304.9387,691.3675 306.8137,691.3675 Q307.7044,691.3675 308.3762,691.555 Q309.0481,691.7269 309.7356,692.0706 L308.9231,694.0863 Q308.2981,693.7738 307.7512,693.6488 Q307.22,693.5238 306.7356,693.5238 Q305.5637,693.5238 304.8606,694.055 Q304.1575,694.5863 303.8606,695.5394 Q303.5637,696.4925 303.5637,697.7581 Q303.5637,699.7738 304.2825,700.7425 Q305.0012,701.6956 306.595,701.6956 Q307.1887,701.6956 307.8137,701.5394 Q308.4387,701.3831 309.2669,701.0081 L309.2669,703.2269 Q308.5325,703.5394 307.7356,703.6956 Q306.9544,703.8519 306.1887,703.8519 Z " fill="#000000"/><text fill="#000000" font-family="sans-serif" font-size="14" lengthAdjust="spacing" textLength="58" x="327.22" y="702.362">Program</text><line style="stroke:#181818;stroke-width:0.5;" x1="258.97" x2="420.97" y1="712.93" y2="712.93"/><rect fill="none" height="6" style="stroke:#C82930;stroke-width:1.0;" width="6" x="265.97" y="724.964"/><text fill="#000000" font-family="sans-serif" font-size="14" lengthAdjust="spacing" textLength="79" x="277.97" y="731.8959">Byte[] bytes</text><line style="stroke:#181818;stroke-width:0.5;" x1="258.97" x2="420.97" y1="739.9979" y2="739.9979"/><ellipse cx="268.97" cy="755.0319" fill="#84BE84" rx="3" ry="3" style="stroke:#038048;stroke-width:1.0;"/><text fill="#000000" font-family="sans-serif" font-size="14" lengthAdjust="spacing" textLength="138" x="277.97" y="758.9639">Program(bytes: int[])</text><ellipse cx="268.97" cy="774.0998" fill="#84BE84" rx="3" ry="3" style="stroke:#038048;stroke-width:1.0;"/><text fill="#000000" font-family="sans-serif" font-size="14" lengthAdjust="spacing" textLength="102" x="277.97" y="778.0318">stream(): Byte[]</text></g><!--class list--><g id="elem_list"><rect fill="#F1F1F1" height="48" id="list" rx="2.5" ry="2.5" style="stroke:#181818;stroke-width:0.5;" width="52" x="533.97" y="869.08"/><ellipse cx="548.97" cy="885.08" fill="#ADD1B2" rx="11" ry="11" style="stroke:#181818;stroke-width:1.0;"/><path d="M548.4388,892.0019 Q546.6888,892.0019 545.5481,891.2675 Q544.4231,890.5175 543.8606,889.1738 Q543.3138,887.8144 543.3138,886.0175 Q543.3138,883.9863 543.97,882.5331 Q544.6263,881.08 545.9075,880.2988 Q547.1888,879.5175 549.0638,879.5175 Q549.9544,879.5175 550.6263,879.705 Q551.2981,879.8769 551.9856,880.2206 L551.1731,882.2363 Q550.5481,881.9238 550.0013,881.7988 Q549.47,881.6738 548.9856,881.6738 Q547.8138,881.6738 547.1106,882.205 Q546.4075,882.7363 546.1106,883.6894 Q545.8138,884.6425 545.8138,885.9081 Q545.8138,887.9238 546.5325,888.8925 Q547.2513,889.8456 548.845,889.8456 Q549.4388,889.8456 550.0638,889.6894 Q550.6888,889.5331 551.5169,889.1581 L551.5169,891.3769 Q550.7825,891.6894 549.9856,891.8456 Q549.2044,892.0019 548.4388,892.0019 Z " fill="#000000"/><text fill="#000000" font-family="sans-serif" font-size="14" lengthAdjust="spacing" textLength="20" x="562.97" y="890.512">list</text><line style="stroke:#181818;stroke-width:0.5;" x1="534.97" x2="584.97" y1="901.08" y2="901.08"/><line style="stroke:#181818;stroke-width:0.5;" x1="534.97" x2="584.97" y1="909.08" y2="909.08"/></g><!--reverse link OS to RAM--><g id="link_OS_RAM"><path codeLine="56" d="M183.6567,180.0296 C169.3267,204.4496 160.46,219.55 149.1,238.89 " fill="none" id="OS-backto-RAM" style="stroke:#181818;stroke-width:1.0;"/><polygon fill="#181818" points="189.73,169.68,183.2435,172.8304,183.6567,180.0296,190.1432,176.8793,189.73,169.68" style="stroke:#181818;stroke-width:1.0;"/></g><!--reverse link OS to Disc--><g id="link_OS_Disc"><path codeLine="57" d="M290.2877,180.0271 C302.3877,200.6271 308.83,211.62 319.27,229.4 " fill="none" id="OS-backto-Disc" style="stroke:#181818;stroke-width:1.0;"/><polygon fill="#181818" points="284.21,169.68,283.7998,176.8794,290.2877,180.0271,290.6979,172.8277,284.21,169.68" style="stroke:#181818;stroke-width:1.0;"/></g><!--link Disc to Memory--><g id="link_Disc_Memory"><path codeLine="58" d="M323.34,315.97 C314.96,333.24 312.6837,337.9286 302.3437,359.2186 " fill="none" id="Disc-to-Memory" style="stroke:#181818;stroke-width:1.0;"/><polygon fill="none" points="294.48,375.41,307.7409,361.8398,296.9466,356.5973,294.48,375.41" style="stroke:#181818;stroke-width:1.0;"/></g><!--link RAM to Memory--><g id="link_RAM_Memory"><path codeLine="59" d="M145.99,306.47 C155.08,325.21 159.22,333.7268 171.51,359.0468 " fill="none" id="RAM-to-Memory" style="stroke:#181818;stroke-width:1.0;"/><polygon fill="none" points="179.37,375.24,176.9078,356.4268,166.1123,361.6668,179.37,375.24" style="stroke:#181818;stroke-width:1.0;"/></g><!--link SafeList to list--><g id="link_SafeList_list"><path codeLine="60" d="M559.97,793.2 C559.97,819.44 559.97,830.88 559.97,850.76 " fill="none" id="SafeList-to-list" style="stroke:#181818;stroke-width:1.0;"/><polygon fill="none" points="559.97,868.76,565.97,850.76,553.97,850.76,559.97,868.76" style="stroke:#181818;stroke-width:1.0;"/></g><!--reverse link Memory to Byte--><g id="link_Memory_Byte"><path codeLine="61" d="M97.4771,586.359 C66.6371,612.849 46.92,637.25 29.97,674.22 C8,722.15 6,745.88 29.97,792.84 C42.45,817.3 64.09,837.13 86.54,852.45 " fill="none" id="Memory-backto-Byte" style="stroke:#181818;stroke-width:1.0;"/><polygon fill="#181818" points="106.58,578.54,99.4222,579.4152,97.4771,586.359,104.6348,585.4838,106.58,578.54" style="stroke:#181818;stroke-width:1.0;"/></g><!--reverse link Program to Byte--><g id="link_Program_Byte"><path codeLine="62" d="M273.9679,794.64 C250.4479,816.06 232.51,832.39 210.61,852.34 " fill="none" id="Program-backto-Byte" style="stroke:#181818;stroke-width:1.0;"/><polygon fill="#181818" points="282.84,786.56,275.7106,787.6426,273.9679,794.64,281.0973,793.5573,282.84,786.56" style="stroke:#181818;stroke-width:1.0;"/></g><!--reverse link Memory to Segment--><g id="link_Memory_Segment"><path codeLine="63" d="M181.0706,625.5801 C171.0806,648.7601 165.85,660.9 157.4,680.48 " fill="none" id="Memory-backto-Segment" style="stroke:#181818;stroke-width:1.0;"/><polygon fill="#181818" points="185.82,614.56,179.7719,618.4869,181.0706,625.5801,187.1187,621.6532,185.82,614.56" style="stroke:#181818;stroke-width:1.0;"/></g><!--reverse link Memory to Program--><g id="link_Memory_Program"><path codeLine="64" d="M293.4094,625.5628 C303.4994,648.7428 308.79,660.9 317.32,680.48 " fill="none" id="Memory-backto-Program" style="stroke:#181818;stroke-width:1.0;"/><polygon fill="#181818" points="288.62,614.56,287.3471,621.6579,293.4094,625.5628,294.6823,618.4649,288.62,614.56" style="stroke:#181818;stroke-width:1.0;"/></g><!--reverse link Memory to SafeList--><g id="link_Memory_SafeList"><path codeLine="65" d="M377.0998,598.5524 C415.2598,626.5124 446.16,649.15 480.17,674.07 " fill="none" id="Memory-backto-SafeList" style="stroke:#181818;stroke-width:1.0;"/><polygon fill="#181818" points="367.42,591.46,369.8957,598.2328,377.0998,598.5524,374.624,591.7796,367.42,591.46" style="stroke:#181818;stroke-width:1.0;"/></g><!--SRC=[TLJ1ReCm3Btp5Jc6LVm0gf0sxRYgqpXMLPH1raKB0K7eohh- - -9WGbZRdeBz_EpulRHGlEl8HbHrEv1pHEml8L8RKhaGw-IFmEZJOCHkJoekDHkpcCZvXtYHdLddub09RRAfMF6XxataO2jiGe4nXHOnnhjltZ2fQTFMXvPNANaT3t5AZhKiGvHbeoEfBIZ5QUHPu0x2i7SxQKTjV1mvo2m60mIEl03rcYjL5zo84Wi0QJjDetosKd_HgUybYWgtnRV73Qvm1MSQh70S9Pwnpx8hF1W-wBGESMguBba9iM1NlXA8o7fTSiFDq8WiypGWsv6hNf1pAtYvrMgup7LuKu_kZBt5WG17Y9-ft8Plfs2kcqsskUVVvjIAkBZzc50rBncARMKqDRE7Q_Nlejrcxi6TJG3w3nZw9OG2XYr7k0LrYZjGeCJaUwj6RwIIPWZ4OCnQIHfHCKONNkLwy91MDAtDnoG5EJ3SrCrrXM-Az_Ll5L-bi_pqqX13NT2nxFRnBBk0Q_Z7OPcjQWz90fwTZk38o7aqINupVBeH63pyzWjmGMLF4VwJ00VmHzEuFX00q95X2E4B53Rv0m00]--></g></svg>