<?xml version="1.0" encoding="us-ascii" standalone="no"?><svg xmlns="http://www.w3.org/2000/svg" xmlns:xlink="http://www.w3.org/1999/xlink" contentStyleType="text/css" height="544px" preserveAspectRatio="none" style="width:757px;height:544px;background:#FFFFFF;" version="1.1" viewBox="0 0 757 544" width="757px" zoomAndPan="magnify"><defs/><g><!--class Memory--><g id="elem_Memory"><rect codeLine="1" fill="#F1F1F1" height="219.6113" id="Memory" rx="2.5" ry="2.5" style="stroke:#181818;stroke-width:0.5;" width="249" x="139.5" y="7"/><ellipse cx="232.25" cy="23" fill="#ADD1B2" rx="11" ry="11" style="stroke:#181818;stroke-width:1.0;"/><path d="M231.7188,29.9219 Q229.9688,29.9219 228.8281,29.1875 Q227.7031,28.4375 227.1406,27.0938 Q226.5938,25.7344 226.5938,23.9375 Q226.5938,21.9063 227.25,20.4531 Q227.9063,19 229.1875,18.2188 Q230.4688,17.4375 232.3438,17.4375 Q233.2344,17.4375 233.9063,17.625 Q234.5781,17.7969 235.2656,18.1406 L234.4531,20.1563 Q233.8281,19.8438 233.2813,19.7188 Q232.75,19.5938 232.2656,19.5938 Q231.0938,19.5938 230.3906,20.125 Q229.6875,20.6563 229.3906,21.6094 Q229.0938,22.5625 229.0938,23.8281 Q229.0938,25.8438 229.8125,26.8125 Q230.5313,27.7656 232.125,27.7656 Q232.7188,27.7656 233.3438,27.6094 Q233.9688,27.4531 234.7969,27.0781 L234.7969,29.2969 Q234.0625,29.6094 233.2656,29.7656 Q232.4844,29.9219 231.7188,29.9219 Z " fill="#000000"/><text fill="#000000" font-family="sans-serif" font-size="14" lengthAdjust="spacing" textLength="55" x="252.75" y="28.432">Memory</text><line style="stroke:#181818;stroke-width:0.5;" x1="140.5" x2="387.5" y1="39" y2="39"/><rect fill="none" height="6" style="stroke:#C82930;stroke-width:1.0;" width="6" x="147.5" y="51.034"/><text fill="#000000" font-family="sans-serif" font-size="14" lengthAdjust="spacing" textLength="109" x="159.5" y="57.9659">int memory_size</text><rect fill="none" height="6" style="stroke:#C82930;stroke-width:1.0;" width="6" x="147.5" y="70.1019"/><text fill="#000000" font-family="sans-serif" font-size="14" lengthAdjust="spacing" textLength="138" x="159.5" y="77.0339">Byte[] main_memory</text><rect fill="none" height="6" style="stroke:#C82930;stroke-width:1.0;" width="6" x="147.5" y="89.1698"/><text fill="#000000" font-family="sans-serif" font-size="14" lengthAdjust="spacing" textLength="176" x="159.5" y="96.1018">Segment[] memory_layout</text><line style="stroke:#181818;stroke-width:0.5;" x1="140.5" x2="387.5" y1="104.2038" y2="104.2038"/><ellipse cx="150.5" cy="119.2377" fill="#84BE84" rx="3" ry="3" style="stroke:#038048;stroke-width:1.0;"/><text fill="#000000" font-family="sans-serif" font-size="14" lengthAdjust="spacing" textLength="115" x="159.5" y="123.1697">Memory(size: int)</text><ellipse cx="150.5" cy="138.3056" fill="#84BE84" rx="3" ry="3" style="stroke:#038048;stroke-width:1.0;"/><text fill="#000000" font-family="sans-serif" font-size="14" lengthAdjust="spacing" textLength="223" x="159.5" y="142.2376">swap_in(program: Program): void</text><ellipse cx="150.5" cy="157.3735" fill="#84BE84" rx="3" ry="3" style="stroke:#038048;stroke-width:1.0;"/><text fill="#000000" font-family="sans-serif" font-size="14" lengthAdjust="spacing" textLength="217" x="159.5" y="161.3055">swap_out(layout_index: int): void</text><ellipse cx="150.5" cy="176.4415" fill="#84BE84" rx="3" ry="3" style="stroke:#038048;stroke-width:1.0;"/><text fill="#000000" font-family="sans-serif" font-size="14" lengthAdjust="spacing" textLength="119" x="159.5" y="180.3734">get_bytes(): Byte[]</text><ellipse cx="150.5" cy="195.5094" fill="#84BE84" rx="3" ry="3" style="stroke:#038048;stroke-width:1.0;"/><text fill="#000000" font-family="sans-serif" font-size="14" lengthAdjust="spacing" textLength="206" x="159.5" y="199.4414">get_memory_layout(): Segment</text><ellipse cx="150.5" cy="214.5773" fill="#84BE84" rx="3" ry="3" style="stroke:#038048;stroke-width:1.0;"/><text fill="#000000" font-family="sans-serif" font-size="14" lengthAdjust="spacing" textLength="86" x="159.5" y="218.5093">shrink(): void</text></g><!--class Byte--><g id="elem_Byte"><rect codeLine="14" fill="#F1F1F1" height="80.4799" id="Byte" rx="2.5" ry="2.5" style="stroke:#181818;stroke-width:0.5;" width="88" x="7" y="317.97"/><ellipse cx="25.15" cy="340.676" fill="#ADD1B2" rx="11" ry="11" style="stroke:#181818;stroke-width:1.0;"/><path d="M24.6188,347.5979 Q22.8688,347.5979 21.7281,346.8635 Q20.6031,346.1135 20.0406,344.7698 Q19.4938,343.4104 19.4938,341.6135 Q19.4938,339.5823 20.15,338.1291 Q20.8063,336.676 22.0875,335.8948 Q23.3688,335.1135 25.2438,335.1135 Q26.1344,335.1135 26.8063,335.301 Q27.4781,335.4729 28.1656,335.8166 L27.3531,337.8323 Q26.7281,337.5198 26.1813,337.3948 Q25.65,337.2698 25.1656,337.2698 Q23.9938,337.2698 23.2906,337.801 Q22.5875,338.3323 22.2906,339.2854 Q21.9938,340.2385 21.9938,341.5041 Q21.9938,343.5198 22.7125,344.4885 Q23.4313,345.4416 25.025,345.4416 Q25.6188,345.4416 26.2438,345.2854 Q26.8688,345.1291 27.6969,344.7541 L27.6969,346.9729 Q26.9625,347.2854 26.1656,347.4416 Q25.3844,347.5979 24.6188,347.5979 Z " fill="#000000"/><text fill="#000000" font-family="sans-serif" font-size="12" font-style="italic" lengthAdjust="spacing" textLength="53" x="37.85" y="335.7981">&#171;storage&#187;</text><text fill="#000000" font-family="sans-serif" font-size="14" lengthAdjust="spacing" textLength="29" x="49.85" y="354.28">Byte</text><line style="stroke:#181818;stroke-width:0.5;" x1="8" x2="94" y1="363.382" y2="363.382"/><rect fill="none" height="6" style="stroke:#C82930;stroke-width:1.0;" width="6" x="15" y="375.416"/><text fill="#000000" font-family="sans-serif" font-size="14" lengthAdjust="spacing" textLength="62" x="27" y="382.348">value: int</text><line style="stroke:#181818;stroke-width:0.5;" x1="8" x2="94" y1="390.4499" y2="390.4499"/></g><!--class Segment--><g id="elem_Segment"><rect codeLine="18" fill="#F1F1F1" height="105.2038" id="Segment" rx="2.5" ry="2.5" style="stroke:#181818;stroke-width:0.5;" width="175" x="130.5" y="305.61"/><ellipse cx="183.75" cy="321.61" fill="#ADD1B2" rx="11" ry="11" style="stroke:#181818;stroke-width:1.0;"/><path d="M183.2188,328.5319 Q181.4688,328.5319 180.3281,327.7975 Q179.2031,327.0475 178.6406,325.7037 Q178.0938,324.3444 178.0938,322.5475 Q178.0938,320.5162 178.75,319.0631 Q179.4063,317.61 180.6875,316.8287 Q181.9688,316.0475 183.8438,316.0475 Q184.7344,316.0475 185.4063,316.235 Q186.0781,316.4069 186.7656,316.7506 L185.9531,318.7662 Q185.3281,318.4537 184.7813,318.3287 Q184.25,318.2037 183.7656,318.2037 Q182.5938,318.2037 181.8906,318.735 Q181.1875,319.2662 180.8906,320.2194 Q180.5938,321.1725 180.5938,322.4381 Q180.5938,324.4537 181.3125,325.4225 Q182.0313,326.3756 183.625,326.3756 Q184.2188,326.3756 184.8438,326.2194 Q185.4688,326.0631 186.2969,325.6881 L186.2969,327.9069 Q185.5625,328.2194 184.7656,328.3756 Q183.9844,328.5319 183.2188,328.5319 Z " fill="#000000"/><text fill="#000000" font-family="sans-serif" font-size="14" lengthAdjust="spacing" textLength="60" x="204.25" y="327.042">Segment</text><line style="stroke:#181818;stroke-width:0.5;" x1="131.5" x2="304.5" y1="337.61" y2="337.61"/><ellipse cx="141.5" cy="352.644" fill="none" rx="3" ry="3" style="stroke:#038048;stroke-width:1.0;"/><text fill="#000000" font-family="sans-serif" font-size="14" lengthAdjust="spacing" textLength="149" x="150.5" y="356.5759">string type {readOnly}</text><ellipse cx="141.5" cy="371.7119" fill="none" rx="3" ry="3" style="stroke:#038048;stroke-width:1.0;"/><text fill="#000000" font-family="sans-serif" font-size="14" lengthAdjust="spacing" textLength="135" x="150.5" y="375.6439">int index {readOnly}</text><ellipse cx="141.5" cy="390.7798" fill="none" rx="3" ry="3" style="stroke:#038048;stroke-width:1.0;"/><text fill="#000000" font-family="sans-serif" font-size="14" lengthAdjust="spacing" textLength="124" x="150.5" y="394.7118">int size {readOnly}</text><line style="stroke:#181818;stroke-width:0.5;" x1="131.5" x2="304.5" y1="402.8138" y2="402.8138"/></g><!--class SafeList--><g id="elem_SafeList"><rect codeLine="24" fill="#F1F1F1" height="80.4799" id="SafeList" rx="2.5" ry="2.5" style="stroke:#181818;stroke-width:0.5;" width="210" x="341" y="317.97"/><ellipse cx="415.75" cy="340.676" fill="#ADD1B2" rx="11" ry="11" style="stroke:#181818;stroke-width:1.0;"/><path d="M415.2188,347.5979 Q413.4688,347.5979 412.3281,346.8635 Q411.2031,346.1135 410.6406,344.7698 Q410.0938,343.4104 410.0938,341.6135 Q410.0938,339.5823 410.75,338.1291 Q411.4063,336.676 412.6875,335.8948 Q413.9688,335.1135 415.8438,335.1135 Q416.7344,335.1135 417.4063,335.301 Q418.0781,335.4729 418.7656,335.8166 L417.9531,337.8323 Q417.3281,337.5198 416.7813,337.3948 Q416.25,337.2698 415.7656,337.2698 Q414.5938,337.2698 413.8906,337.801 Q413.1875,338.3323 412.8906,339.2854 Q412.5938,340.2385 412.5938,341.5041 Q412.5938,343.5198 413.3125,344.4885 Q414.0313,345.4416 415.625,345.4416 Q416.2188,345.4416 416.8438,345.2854 Q417.4688,345.1291 418.2969,344.7541 L418.2969,346.9729 Q417.5625,347.2854 416.7656,347.4416 Q415.9844,347.5979 415.2188,347.5979 Z " fill="#000000"/><text fill="#000000" font-family="sans-serif" font-size="12" font-style="italic" lengthAdjust="spacing" textLength="42" x="441.25" y="335.7981">&#171;utility&#187;</text><text fill="#000000" font-family="sans-serif" font-size="14" lengthAdjust="spacing" textLength="52" x="436.25" y="354.28">SafeList</text><line style="stroke:#181818;stroke-width:0.5;" x1="342" x2="550" y1="363.382" y2="363.382"/><line style="stroke:#181818;stroke-width:0.5;" x1="342" x2="550" y1="371.382" y2="371.382"/><ellipse cx="352" cy="386.416" fill="#84BE84" rx="3" ry="3" style="stroke:#038048;stroke-width:1.0;"/><text fill="#000000" font-family="sans-serif" font-size="14" lengthAdjust="spacing" textLength="184" x="361" y="390.348">__getitem__(index: int) : Any</text></g><!--class Program--><g id="elem_Program"><rect codeLine="28" fill="#F1F1F1" height="105.2038" id="Program" rx="2.5" ry="2.5" style="stroke:#181818;stroke-width:0.5;" width="164" x="586" y="305.61"/><ellipse cx="634.75" cy="321.61" fill="#ADD1B2" rx="11" ry="11" style="stroke:#181818;stroke-width:1.0;"/><path d="M634.2188,328.5319 Q632.4688,328.5319 631.3281,327.7975 Q630.2031,327.0475 629.6406,325.7037 Q629.0938,324.3444 629.0938,322.5475 Q629.0938,320.5162 629.75,319.0631 Q630.4063,317.61 631.6875,316.8287 Q632.9688,316.0475 634.8438,316.0475 Q635.7344,316.0475 636.4063,316.235 Q637.0781,316.4069 637.7656,316.7506 L636.9531,318.7662 Q636.3281,318.4537 635.7813,318.3287 Q635.25,318.2037 634.7656,318.2037 Q633.5938,318.2037 632.8906,318.735 Q632.1875,319.2662 631.8906,320.2194 Q631.5938,321.1725 631.5938,322.4381 Q631.5938,324.4537 632.3125,325.4225 Q633.0313,326.3756 634.625,326.3756 Q635.2188,326.3756 635.8438,326.2194 Q636.4688,326.0631 637.2969,325.6881 L637.2969,327.9069 Q636.5625,328.2194 635.7656,328.3756 Q634.9844,328.5319 634.2188,328.5319 Z " fill="#000000"/><text fill="#000000" font-family="sans-serif" font-size="14" lengthAdjust="spacing" textLength="58" x="655.25" y="327.042">Program</text><line style="stroke:#181818;stroke-width:0.5;" x1="587" x2="749" y1="337.61" y2="337.61"/><rect fill="none" height="6" style="stroke:#C82930;stroke-width:1.0;" width="6" x="594" y="349.644"/><text fill="#000000" font-family="sans-serif" font-size="14" lengthAdjust="spacing" textLength="79" x="606" y="356.5759">Byte[] bytes</text><line style="stroke:#181818;stroke-width:0.5;" x1="587" x2="749" y1="364.6779" y2="364.6779"/><ellipse cx="597" cy="379.7119" fill="#84BE84" rx="3" ry="3" style="stroke:#038048;stroke-width:1.0;"/><text fill="#000000" font-family="sans-serif" font-size="14" lengthAdjust="spacing" textLength="138" x="606" y="383.6439">Program(bytes: int[])</text><ellipse cx="597" cy="398.7798" fill="#84BE84" rx="3" ry="3" style="stroke:#038048;stroke-width:1.0;"/><text fill="#000000" font-family="sans-serif" font-size="14" lengthAdjust="spacing" textLength="102" x="606" y="402.7118">stream(): Byte[]</text></g><!--class list--><g id="elem_list"><rect fill="#F1F1F1" height="48" id="list" rx="2.5" ry="2.5" style="stroke:#181818;stroke-width:0.5;" width="52" x="420" y="489.81"/><ellipse cx="435" cy="505.81" fill="#ADD1B2" rx="11" ry="11" style="stroke:#181818;stroke-width:1.0;"/><path d="M434.4688,512.7319 Q432.7188,512.7319 431.5781,511.9975 Q430.4531,511.2475 429.8906,509.9037 Q429.3438,508.5444 429.3438,506.7475 Q429.3438,504.7162 430,503.2631 Q430.6563,501.81 431.9375,501.0287 Q433.2188,500.2475 435.0938,500.2475 Q435.9844,500.2475 436.6563,500.435 Q437.3281,500.6069 438.0156,500.9506 L437.2031,502.9662 Q436.5781,502.6537 436.0313,502.5287 Q435.5,502.4037 435.0156,502.4037 Q433.8438,502.4037 433.1406,502.935 Q432.4375,503.4662 432.1406,504.4194 Q431.8438,505.3725 431.8438,506.6381 Q431.8438,508.6537 432.5625,509.6225 Q433.2813,510.5756 434.875,510.5756 Q435.4688,510.5756 436.0938,510.4194 Q436.7188,510.2631 437.5469,509.8881 L437.5469,512.1069 Q436.8125,512.4194 436.0156,512.5756 Q435.2344,512.7319 434.4688,512.7319 Z " fill="#000000"/><text fill="#000000" font-family="sans-serif" font-size="14" lengthAdjust="spacing" textLength="20" x="449" y="511.242">list</text><line style="stroke:#181818;stroke-width:0.5;" x1="421" x2="471" y1="521.81" y2="521.81"/><line style="stroke:#181818;stroke-width:0.5;" x1="421" x2="471" y1="529.81" y2="529.81"/></g><!--class contains--><g id="elem_contains"><rect fill="#F1F1F1" height="48" id="contains" rx="2.5" ry="2.5" style="stroke:#181818;stroke-width:0.5;" width="89" x="623.5" y="489.81"/><ellipse cx="638.5" cy="505.81" fill="#ADD1B2" rx="11" ry="11" style="stroke:#181818;stroke-width:1.0;"/><path d="M637.9688,512.7319 Q636.2188,512.7319 635.0781,511.9975 Q633.9531,511.2475 633.3906,509.9037 Q632.8438,508.5444 632.8438,506.7475 Q632.8438,504.7162 633.5,503.2631 Q634.1563,501.81 635.4375,501.0287 Q636.7188,500.2475 638.5938,500.2475 Q639.4844,500.2475 640.1563,500.435 Q640.8281,500.6069 641.5156,500.9506 L640.7031,502.9662 Q640.0781,502.6537 639.5313,502.5287 Q639,502.4037 638.5156,502.4037 Q637.3438,502.4037 636.6406,502.935 Q635.9375,503.4662 635.6406,504.4194 Q635.3438,505.3725 635.3438,506.6381 Q635.3438,508.6537 636.0625,509.6225 Q636.7813,510.5756 638.375,510.5756 Q638.9688,510.5756 639.5938,510.4194 Q640.2188,510.2631 641.0469,509.8881 L641.0469,512.1069 Q640.3125,512.4194 639.5156,512.5756 Q638.7344,512.7319 637.9688,512.7319 Z " fill="#000000"/><text fill="#000000" font-family="sans-serif" font-size="14" lengthAdjust="spacing" textLength="57" x="652.5" y="511.242">contains</text><line style="stroke:#181818;stroke-width:0.5;" x1="624.5" x2="711.5" y1="521.81" y2="521.81"/><line style="stroke:#181818;stroke-width:0.5;" x1="624.5" x2="711.5" y1="529.81" y2="529.81"/></g><!--link SafeList to list--><g id="link_SafeList_list"><path codeLine="35" d="M446,398.76 C446,427.56 446,447.58 446,471.62 " fill="none" id="SafeList-to-list" style="stroke:#181818;stroke-width:1.0;"/><polygon fill="none" points="446,489.62,452,471.62,440,471.62,446,489.62" style="stroke:#181818;stroke-width:1.0;"/></g><!--link Memory to Program--><g id="link_Memory_Program"><path codeLine="36" d="M388.79,191.75 C452.88,229.73 524.0083,271.8811 580.6383,305.4411 " fill="none" id="Memory-to-Program" style="stroke:#181818;stroke-width:1.0;"/><polygon fill="#181818" points="585.8,308.5,580.0967,300.4705,581.4986,305.9509,576.0182,307.3528,585.8,308.5" style="stroke:#181818;stroke-width:1.0;"/><text fill="#000000" font-family="sans-serif" font-size="13" lengthAdjust="spacing" textLength="27" x="526.79" y="271.507">uses</text></g><!--link Memory to SafeList--><g id="link_Memory_SafeList"><path codeLine="37" d="M347.01,227 C371.57,259.31 393.289,287.8734 412.179,312.7234 " fill="none" id="Memory-to-SafeList" style="stroke:#181818;stroke-width:1.0;"/><polygon fill="#181818" points="415.81,317.5,413.5479,307.9144,412.7842,313.5195,407.1791,312.7558,415.81,317.5" style="stroke:#181818;stroke-width:1.0;"/><text fill="#000000" font-family="sans-serif" font-size="13" lengthAdjust="spacing" textLength="27" x="382.94" y="271.507">uses</text></g><!--link Memory to Segment--><g id="link_Memory_Segment"><path codeLine="38" d="M243.02,227 C237.78,254.25 233.5443,276.3482 229.1143,299.3582 " fill="none" id="Memory-to-Segment" style="stroke:#181818;stroke-width:1.0;"/><polygon fill="#181818" points="227.98,305.25,233.6093,297.1685,228.9253,300.3402,225.7536,295.6561,227.98,305.25" style="stroke:#181818;stroke-width:1.0;"/><text fill="#000000" font-family="sans-serif" font-size="13" lengthAdjust="spacing" textLength="51" x="237.88" y="271.507">contains</text></g><!--link Memory to Byte--><g id="link_Memory_Byte"><path codeLine="39" d="M166.85,227 C138.1,259.31 112.4283,288.1674 90.3183,313.0174 " fill="none" id="Memory-to-Byte" style="stroke:#181818;stroke-width:1.0;"/><polygon fill="#181818" points="86.33,317.5,95.3008,313.435,89.6536,313.7645,89.3241,308.1173,86.33,317.5" style="stroke:#181818;stroke-width:1.0;"/><text fill="#000000" font-family="sans-serif" font-size="13" lengthAdjust="spacing" textLength="27" x="139.42" y="271.507">uses</text></g><!--link Program to contains--><g id="link_Program_contains"><path codeLine="40" d="M668,411.21 C668,437.84 668,462.93 668,483.64 " fill="none" id="Program-to-contains" style="stroke:#181818;stroke-width:1.0;"/><polygon fill="#181818" points="668,489.64,672,480.64,668,484.64,664,480.64,668,489.64" style="stroke:#181818;stroke-width:1.0;"/><text fill="#000000" font-family="sans-serif" font-size="13" lengthAdjust="spacing" textLength="27" x="669" y="455.707">Byte</text></g><!--SRC=[RP9DQiCm48NtFiKi5O8lO8AXNRUqq6K8GerLLzIMZJLEgwQvUqVI-0_YbPWt-kRDay-DSWwUTTiD7guPq9U3iGXjB4bdVZLN7ptgumbQPQnCAWjlkcwrnQ2bIutotOXPbFSC5u5K1FIEw-vRzT9OqGzTFQYsWDTqs1LmwKorxYAQI52wKEcVnDdqrHhbEpbqWkh9wahP60iTx7aQyZaO-oKcuYtBpZ6Nm873mM4tg5gNvPpGHJLZscPfPYJt41G9MWFwNiDrqAfwiOs_iHWYZglSbq9OQsKPeZxqat58haOqZK4_kzg3bBIhGTrAALOvGG4FrYyCpdbUXXysfZSz6lU8M8oOusctBAP9Md8cykmhp_zAQEYKyK-Lv-KyiO3HqOoLCj-x8t6U1PmxY_JNRTJuD7nfmeVwr0l9tJy0]--></g></svg>