<?xml version="1.0" encoding="us-ascii" standalone="no"?><svg xmlns="http://www.w3.org/2000/svg" xmlns:xlink="http://www.w3.org/1999/xlink" contentStyleType="text/css" height="417px" preserveAspectRatio="none" style="width:312px;height:417px;background:#FFFFFF;" version="1.1" viewBox="0 0 312 417" width="312px" zoomAndPan="magnify"><defs/><g><!--class Memory--><g id="elem_Memory"><rect codeLine="1" fill="#F1F1F1" height="219.6113" id="Memory" rx="2.5" ry="2.5" style="stroke:#181818;stroke-width:0.5;" width="298" x="7" y="7"/><ellipse cx="124.25" cy="23" fill="#ADD1B2" rx="11" ry="11" style="stroke:#181818;stroke-width:1.0;"/><path d="M123.7188,29.9219 Q121.9688,29.9219 120.8281,29.1875 Q119.7031,28.4375 119.1406,27.0938 Q118.5938,25.7344 118.5938,23.9375 Q118.5938,21.9063 119.25,20.4531 Q119.9063,19 121.1875,18.2188 Q122.4688,17.4375 124.3438,17.4375 Q125.2344,17.4375 125.9063,17.625 Q126.5781,17.7969 127.2656,18.1406 L126.4531,20.1563 Q125.8281,19.8438 125.2813,19.7188 Q124.75,19.5938 124.2656,19.5938 Q123.0938,19.5938 122.3906,20.125 Q121.6875,20.6563 121.3906,21.6094 Q121.0938,22.5625 121.0938,23.8281 Q121.0938,25.8438 121.8125,26.8125 Q122.5313,27.7656 124.125,27.7656 Q124.7188,27.7656 125.3438,27.6094 Q125.9688,27.4531 126.7969,27.0781 L126.7969,29.2969 Q126.0625,29.6094 125.2656,29.7656 Q124.4844,29.9219 123.7188,29.9219 Z " fill="#000000"/><text fill="#000000" font-family="sans-serif" font-size="14" lengthAdjust="spacing" textLength="55" x="144.75" y="28.432">Memory</text><line style="stroke:#181818;stroke-width:0.5;" x1="8" x2="304" y1="39" y2="39"/><rect fill="none" height="6" style="stroke:#C82930;stroke-width:1.0;" width="6" x="15" y="51.034"/><text fill="#000000" font-family="sans-serif" font-size="14" lengthAdjust="spacing" textLength="138" x="27" y="57.9659">byte[] main_memory</text><rect fill="none" height="6" style="stroke:#C82930;stroke-width:1.0;" width="6" x="15" y="70.1019"/><text fill="#000000" font-family="sans-serif" font-size="14" lengthAdjust="spacing" textLength="165" x="27" y="77.0339">int next_allocation_index</text><rect fill="none" height="6" style="stroke:#C82930;stroke-width:1.0;" width="6" x="15" y="89.1698"/><text fill="#000000" font-family="sans-serif" font-size="14" lengthAdjust="spacing" textLength="217" x="27" y="96.1018">List&lt;Tuple&lt;int&gt;&gt; memory_layout</text><line style="stroke:#181818;stroke-width:0.5;" x1="8" x2="304" y1="104.2038" y2="104.2038"/><rect fill="#F24D5C" height="6" style="stroke:#C82930;stroke-width:1.0;" width="6" x="15" y="116.2377"/><text fill="#000000" font-family="sans-serif" font-size="14" lengthAdjust="spacing" textLength="129" x="27" y="123.1697">save_context(): void</text><ellipse cx="18" cy="138.3056" fill="#84BE84" rx="3" ry="3" style="stroke:#038048;stroke-width:1.0;"/><text fill="#000000" font-family="sans-serif" font-size="14" lengthAdjust="spacing" textLength="223" x="27" y="142.2376">swap_in(program: Program): void</text><ellipse cx="18" cy="157.3735" fill="#84BE84" rx="3" ry="3" style="stroke:#038048;stroke-width:1.0;"/><text fill="#000000" font-family="sans-serif" font-size="14" lengthAdjust="spacing" textLength="272" x="27" y="161.3055">swap_out(program_start_index: int): void</text><ellipse cx="18" cy="176.4415" fill="#84BE84" rx="3" ry="3" style="stroke:#038048;stroke-width:1.0;"/><text fill="#000000" font-family="sans-serif" font-size="14" lengthAdjust="spacing" textLength="119" x="27" y="180.3734">get_bytes(): byte[]</text><ellipse cx="18" cy="195.5094" fill="#84BE84" rx="3" ry="3" style="stroke:#038048;stroke-width:1.0;"/><text fill="#000000" font-family="sans-serif" font-size="14" lengthAdjust="spacing" textLength="240" x="27" y="199.4414">get_memory_layout(): List&lt;Set&lt;int&gt;&gt;</text><ellipse cx="18" cy="214.5773" fill="#84BE84" rx="3" ry="3" style="stroke:#038048;stroke-width:1.0;"/><text fill="#000000" font-family="sans-serif" font-size="14" lengthAdjust="spacing" textLength="86" x="27" y="218.5093">shrink(): void</text></g><!--class Program--><g id="elem_Program"><rect codeLine="14" fill="#F1F1F1" height="105.2038" id="Program" rx="2.5" ry="2.5" style="stroke:#181818;stroke-width:0.5;" width="175" x="68.5" y="305.61"/><ellipse cx="122.75" cy="321.61" fill="#ADD1B2" rx="11" ry="11" style="stroke:#181818;stroke-width:1.0;"/><path d="M122.2188,328.5319 Q120.4688,328.5319 119.3281,327.7975 Q118.2031,327.0475 117.6406,325.7038 Q117.0938,324.3444 117.0938,322.5475 Q117.0938,320.5163 117.75,319.0631 Q118.4063,317.61 119.6875,316.8288 Q120.9688,316.0475 122.8438,316.0475 Q123.7344,316.0475 124.4063,316.235 Q125.0781,316.4069 125.7656,316.7506 L124.9531,318.7663 Q124.3281,318.4538 123.7813,318.3288 Q123.25,318.2038 122.7656,318.2038 Q121.5938,318.2038 120.8906,318.735 Q120.1875,319.2663 119.8906,320.2194 Q119.5938,321.1725 119.5938,322.4381 Q119.5938,324.4538 120.3125,325.4225 Q121.0313,326.3756 122.625,326.3756 Q123.2188,326.3756 123.8438,326.2194 Q124.4688,326.0631 125.2969,325.6881 L125.2969,327.9069 Q124.5625,328.2194 123.7656,328.3756 Q122.9844,328.5319 122.2188,328.5319 Z " fill="#000000"/><text fill="#000000" font-family="sans-serif" font-size="14" lengthAdjust="spacing" textLength="58" x="143.25" y="327.042">Program</text><line style="stroke:#181818;stroke-width:0.5;" x1="69.5" x2="242.5" y1="337.61" y2="337.61"/><rect fill="none" height="6" style="stroke:#C82930;stroke-width:1.0;" width="6" x="76.5" y="349.644"/><text fill="#000000" font-family="sans-serif" font-size="14" lengthAdjust="spacing" textLength="79" x="88.5" y="356.5759">byte[] bytes</text><line style="stroke:#181818;stroke-width:0.5;" x1="69.5" x2="242.5" y1="364.6779" y2="364.6779"/><ellipse cx="79.5" cy="379.7119" fill="#84BE84" rx="3" ry="3" style="stroke:#038048;stroke-width:1.0;"/><text fill="#000000" font-family="sans-serif" font-size="14" lengthAdjust="spacing" textLength="149" x="88.5" y="383.6439">Program(byte: bytes[])</text><ellipse cx="79.5" cy="398.7798" fill="#84BE84" rx="3" ry="3" style="stroke:#038048;stroke-width:1.0;"/><text fill="#000000" font-family="sans-serif" font-size="14" lengthAdjust="spacing" textLength="102" x="88.5" y="402.7118">stream(): byte[]</text></g><!--link Memory to Program--><g id="link_Memory_Program"><path codeLine="21" d="M156,227 C156,254.25 156,276.24 156,299.25 " fill="none" id="Memory-to-Program" style="stroke:#181818;stroke-width:1.0;"/><polygon fill="#181818" points="156,305.25,160,296.25,156,300.25,152,296.25,156,305.25" style="stroke:#181818;stroke-width:1.0;"/><text fill="#000000" font-family="sans-serif" font-size="13" lengthAdjust="spacing" textLength="27" x="157" y="271.507">uses</text></g><!--SRC=[RL5BQiCm4Dth5BDqABw02Jv12uLs5uAOEaCgAaj6CqvYIkuU_PmsfLe9lJVlCneiCiCBZJuiyAqWdXO-5g7T7aOqJeyPge1n0eukej5QFw0OxxHn1xfK_DcmRD_doT8sKliUohIskFXPL6KndaWFtabKQZOTdBmvPEW9-8nJL6ocu8y1nmvUo-KVLXHSQPe5WvGaNGhvI3-Iw5I9ardfzWjvY9WOkSGRIQcmMdu6uxxkQQzA3NbpDT_VrMKxLMShfqcF9G3lzfjLM095x2TPbAxVqRRzNR-3cObl]--></g></svg>